<svg data-v-fde0c5aa="" xmlns="http://www.w3.org/2000/svg" viewBox="0 0 300 300" class="iconLeftSlogan"><!----><defs data-v-fde0c5aa=""><!----></defs><rect data-v-fde0c5aa="" fill="#EADEE5" x="0" y="0" width="300px" height="300px" class="logo-background-square"></rect><defs data-v-fde0c5aa=""><!----></defs><g data-v-fde0c5aa="" id="7c36d144-c017-477b-80c1-27c4823b92cf" fill="#240D1B" transform="matrix(1.9671056929051076,0,0,1.9671056929051076,87.68153709228653,127.194141488953)"><path d="M7.70 12.88L8.61 12.88L4.81 2.38L3.89 2.38L0.09 12.88L1.02 12.88L1.91 10.34L6.81 10.34ZM2.19 9.54L4.36 3.38L6.53 9.54ZM13.20 13.02C14.79 13.02 16.14 11.99 16.63 10.57L15.77 10.57C15.31 11.55 14.32 12.20 13.20 12.20C11.64 12.20 10.36 10.97 10.36 9.38C10.36 7.79 11.64 6.56 13.20 6.56C14.32 6.56 15.31 7.21 15.77 8.19L16.63 8.19C16.14 6.77 14.79 5.74 13.20 5.74C11.18 5.74 9.56 7.37 9.56 9.38C9.56 11.39 11.18 13.02 13.20 13.02ZM21.70 13.02C23.29 13.02 24.64 11.99 25.13 10.57L24.27 10.57C23.82 11.55 22.82 12.20 21.70 12.20C20.14 12.20 18.87 10.97 18.87 9.38C18.87 7.79 20.14 6.56 21.70 6.56C22.82 6.56 23.82 7.21 24.27 8.19L25.13 8.19C24.64 6.77 23.29 5.74 21.70 5.74C19.69 5.74 18.06 7.37 18.06 9.38C18.06 11.39 19.69 13.02 21.70 13.02ZM33.83 9.28C33.76 7.28 32.18 5.74 30.21 5.74C28.19 5.74 26.57 7.37 26.57 9.38C26.57 11.39 28.19 13.02 30.21 13.02C31.85 13.02 33.23 11.94 33.69 10.43L32.83 10.43C32.41 11.48 31.40 12.20 30.21 12.20C28.67 12.20 27.41 10.99 27.37 9.47L33.83 9.47ZM30.21 6.56C31.52 6.56 32.64 7.47 32.94 8.71L27.46 8.71C27.76 7.46 28.86 6.56 30.21 6.56ZM37.66 13.02C38.85 13.02 39.83 12.21 39.83 11.08C39.83 9.82 38.80 9.36 37.87 8.98C37.01 8.63 36.44 8.38 36.44 7.63C36.44 6.88 37.00 6.56 37.63 6.56C38.12 6.56 38.57 6.75 38.82 7.17L39.52 6.79C39.23 6.23 38.43 5.74 37.59 5.74C36.63 5.74 35.61 6.39 35.61 7.67C35.61 8.80 36.42 9.31 37.57 9.75C38.41 10.08 39.01 10.36 39.01 11.06C39.01 11.79 38.38 12.21 37.66 12.21C36.93 12.21 36.21 11.79 36.07 11.24L35.28 11.55C35.56 12.37 36.58 13.02 37.66 13.02ZM43.51 13.02C44.70 13.02 45.68 12.21 45.68 11.08C45.68 9.82 44.64 9.36 43.72 8.98C42.86 8.63 42.28 8.38 42.28 7.63C42.28 6.88 42.84 6.56 43.47 6.56C43.96 6.56 44.41 6.75 44.66 7.17L45.36 6.79C45.08 6.23 44.27 5.74 43.44 5.74C42.47 5.74 41.46 6.39 41.46 7.67C41.46 8.80 42.26 9.31 43.42 9.75C44.26 10.08 44.85 10.36 44.85 11.06C44.85 11.79 44.22 12.21 43.51 12.21C42.77 12.21 42.05 11.79 41.91 11.24L41.13 11.55C41.41 12.37 42.42 13.02 43.51 13.02ZM51.64 8.03C53.04 7.88 54.13 6.70 54.13 5.25C54.13 3.66 52.85 2.38 51.26 2.38L47.67 2.38L47.67 12.88L48.51 12.88L48.51 8.07L50.78 8.07L53.81 12.88L54.77 12.88ZM48.51 7.26L48.51 3.22L51.20 3.22C52.38 3.22 53.29 4.08 53.29 5.25C53.29 6.41 52.38 7.26 51.20 7.26ZM63.14 9.28C63.07 7.28 61.50 5.74 59.52 5.74C57.51 5.74 55.88 7.37 55.88 9.38C55.88 11.39 57.51 13.02 59.52 13.02C61.16 13.02 62.55 11.94 63 10.43L62.14 10.43C61.72 11.48 60.71 12.20 59.52 12.20C57.98 12.20 56.72 10.99 56.68 9.47L63.14 9.47ZM59.52 6.56C60.83 6.56 61.95 7.47 62.25 8.71L56.77 8.71C57.07 7.46 58.17 6.56 59.52 6.56ZM72.82 12.21C72.38 12.21 72.06 11.92 72.06 11.25L72.06 5.88L71.24 5.88L71.24 7.09C70.58 6.27 69.56 5.74 68.42 5.74C66.41 5.74 64.78 7.37 64.78 9.38C64.78 11.39 66.41 13.02 68.42 13.02C69.58 13.02 70.61 12.48 71.26 11.62C71.38 12.46 71.92 13.02 72.77 13.02C72.96 13.02 73.15 12.97 73.29 12.88L73.29 12.21ZM68.42 12.20C66.85 12.20 65.59 10.96 65.59 9.38C65.59 7.81 66.85 6.56 68.42 6.56C69.98 6.56 71.24 7.81 71.24 9.38C71.24 10.96 69.98 12.20 68.42 12.20ZM74.85 12.88L75.67 12.88L75.67 0L74.85 0ZM85.12 5.74C84.25 5.74 83.46 6.21 83.02 6.91C82.56 6.20 81.80 5.74 80.99 5.74C80.29 5.74 79.64 6.09 79.22 6.65L79.22 5.88L78.40 5.88L78.40 12.88L79.22 12.88L79.22 8.33C79.22 7.32 79.96 6.56 80.90 6.56C81.85 6.56 82.60 7.32 82.60 8.33L82.60 12.88L83.42 12.88L83.42 8.33C83.42 7.32 84.17 6.56 85.10 6.56C86.05 6.56 86.80 7.32 86.80 8.33L86.80 12.88L87.60 12.88L87.60 8.33C87.60 6.88 86.50 5.74 85.12 5.74Z"></path></g><defs data-v-fde0c5aa=""><linearGradient data-v-fde0c5aa="" gradientTransform="rotate(25)" id="1f5608c2-0093-460a-92e4-2fe5fadf693a" x1="0%" y1="0%" x2="100%" y2="0%"><stop data-v-fde0c5aa="" offset="0%" stop-color="#3C1143" stop-opacity="1"></stop><stop data-v-fde0c5aa="" offset="100%" stop-color="#C25178" stop-opacity="1"></stop></linearGradient></defs><g data-v-fde0c5aa="" id="56cbd52b-5119-41d1-a883-39da582bc5ff" stroke="none" fill="url(#1f5608c2-0093-460a-92e4-2fe5fadf693a)" transform="matrix(1.5254058636516232,0,0,1.5254058636516232,33.02279376004528,125.59350618157403)"><path d="M27.377 11.377L16 0 4.623 11.377 16 22.753l11.377-11.376zM16 6.026l5.35 5.35L16 16.727l-5.35-5.35L16 6.026zM27.426 14.969l-5.664 5.664V32h5.664zM10.238 20.633l-5.664-5.664V32h5.664z"></path></g><defs data-v-fde0c5aa=""><!----></defs><g data-v-fde0c5aa="" id="82e7cbd4-bd8f-4d43-8c81-f9add294ac1b" fill="#240D1B" transform="matrix(0.3481472944950641,0,0,0.3481472944950641,87.6148735096866,161.4863802781915)"><path d="M7.83 3.92L7.48 3.92L1.89 3.92L0.70 3.92L0.70 4.19C0.70 4.34 0.80 4.42 0.98 4.44L1.12 4.44C1.19 4.44 1.29 4.45 1.43 4.45C1.57 4.45 1.72 4.47 1.89 4.47L1.89 13.26C1.72 13.26 1.57 13.27 1.43 13.27C1.29 13.27 1.19 13.29 1.12 13.29L0.98 13.29C0.80 13.30 0.70 13.38 0.70 13.54L0.70 13.82L1.89 13.82L2.60 13.82L3.78 13.82L3.78 13.54C3.78 13.38 3.70 13.30 3.51 13.29L3.37 13.29C3.30 13.29 3.21 13.27 3.07 13.27C2.93 13.27 2.77 13.26 2.60 13.26L2.60 9.27L6.30 9.27L6.30 8.67L2.60 8.67L2.60 4.51L7.21 4.51C7.24 5.18 7.27 5.56 7.27 5.63C7.28 5.85 7.38 5.96 7.57 5.96L7.91 5.96L7.91 3.92ZM24.35 3.92L23.63 3.92L22.27 3.92L22.27 4.19C22.27 4.34 22.37 4.42 22.55 4.44L22.72 4.44C22.82 4.44 22.96 4.45 23.13 4.45C23.30 4.45 23.46 4.47 23.63 4.47L23.63 10.04C23.63 10.50 23.56 10.92 23.42 11.33C23.28 11.73 23.09 12.08 22.82 12.38C22.55 12.67 22.25 12.89 21.87 13.06C21.49 13.23 21.07 13.31 20.59 13.31C20.12 13.31 19.68 13.23 19.31 13.06C18.93 12.89 18.61 12.66 18.35 12.36C18.09 12.07 17.91 11.72 17.77 11.33C17.63 10.93 17.56 10.50 17.56 10.04L17.56 4.47C17.72 4.47 17.89 4.45 18.06 4.45C18.23 4.45 18.37 4.44 18.47 4.44L18.63 4.44C18.82 4.42 18.91 4.34 18.91 4.19L18.91 3.92L17.56 3.92L16.84 3.92L15.67 3.92L15.67 4.19C15.67 4.34 15.75 4.42 15.93 4.44L16.07 4.44C16.14 4.44 16.24 4.45 16.38 4.45C16.52 4.45 16.67 4.47 16.84 4.47L16.84 10.04C16.84 10.58 16.93 11.09 17.09 11.56C17.26 12.04 17.51 12.46 17.84 12.81C18.16 13.16 18.56 13.44 19.03 13.64C19.49 13.83 20.02 13.93 20.59 13.93C21.17 13.93 21.69 13.83 22.15 13.64C22.61 13.44 23.02 13.16 23.34 12.81C23.66 12.46 23.91 12.04 24.08 11.56C24.25 11.09 24.35 10.58 24.35 10.04L24.35 4.47C24.51 4.47 24.65 4.45 24.79 4.45C24.93 4.45 25.05 4.44 25.12 4.44L25.24 4.44C25.42 4.42 25.52 4.34 25.52 4.19L25.52 3.92ZM41.54 13.29L41.44 13.29L41.26 13.29C41.17 13.29 41.09 13.27 41.01 13.27L38.04 9.53C37.95 9.42 37.84 9.32 37.73 9.25C38.16 9.21 38.56 9.11 38.91 8.96C39.26 8.81 39.54 8.61 39.79 8.37C40.03 8.13 40.22 7.85 40.35 7.55C40.47 7.24 40.54 6.89 40.54 6.51C40.54 5.66 40.26 5.03 39.70 4.58C39.14 4.14 38.29 3.92 37.14 3.92L34.73 3.92L33.56 3.92L33.56 4.19C33.56 4.34 33.64 4.42 33.82 4.44L33.96 4.44C34.03 4.44 34.13 4.45 34.27 4.45C34.41 4.45 34.57 4.47 34.73 4.47L34.73 13.26C34.57 13.26 34.41 13.27 34.27 13.27C34.13 13.27 34.03 13.29 33.96 13.29L33.82 13.29C33.64 13.30 33.54 13.38 33.54 13.54L33.54 13.82L34.73 13.82L35.45 13.82L36.62 13.82L36.62 13.54C36.62 13.38 36.53 13.30 36.34 13.29L36.20 13.29C36.13 13.29 36.04 13.27 35.90 13.27C35.76 13.27 35.62 13.26 35.45 13.26L35.45 9.34L36.62 9.34C36.82 9.34 36.96 9.35 37.04 9.39C37.13 9.44 37.21 9.52 37.30 9.62L40.47 13.64C40.53 13.71 40.57 13.75 40.63 13.78C40.68 13.80 40.75 13.82 40.82 13.82L40.89 13.82L41.44 13.82L41.80 13.82L41.80 13.54C41.80 13.38 41.72 13.30 41.54 13.29ZM37.04 8.81L35.45 8.81L35.45 4.48L37.14 4.48C38.02 4.48 38.70 4.66 39.16 5.00C39.62 5.33 39.84 5.87 39.84 6.57C39.84 6.92 39.79 7.21 39.66 7.49C39.54 7.77 39.34 7.99 39.10 8.19C38.86 8.39 38.57 8.55 38.22 8.65C37.87 8.75 37.48 8.81 37.04 8.81ZM57.22 3.92L57.02 3.92L49.73 3.92L49.52 3.92L49.42 3.92L49.42 5.96L49.77 5.96C49.97 5.96 50.05 5.85 50.06 5.63C50.06 5.53 50.09 5.17 50.12 4.52L53.02 4.52L53.02 13.26C52.85 13.26 52.71 13.27 52.57 13.27C52.43 13.27 52.32 13.29 52.25 13.29L52.12 13.29C51.94 13.30 51.84 13.38 51.84 13.54L51.84 13.82L53.02 13.82L53.73 13.82L54.92 13.82L54.92 13.54C54.92 13.38 54.82 13.30 54.64 13.29L54.50 13.29C54.43 13.29 54.33 13.27 54.19 13.27C54.05 13.27 53.90 13.26 53.73 13.26L53.73 4.52L56.62 4.52C56.66 5.24 56.67 5.60 56.67 5.63C56.69 5.85 56.78 5.96 56.98 5.96L57.32 5.96L57.32 3.92ZM75.15 4.44C75.33 4.42 75.43 4.34 75.43 4.19L75.43 3.92L74.26 3.92L73.53 3.92L72.35 3.92L72.35 4.19C72.35 4.34 72.45 4.42 72.63 4.44L72.76 4.44C72.83 4.44 72.94 4.45 73.08 4.45C73.22 4.45 73.36 4.47 73.53 4.47L73.53 8.53L67.33 8.53L67.33 4.47C67.49 4.47 67.65 4.45 67.79 4.45C67.93 4.45 68.03 4.44 68.10 4.44L68.24 4.44C68.42 4.42 68.50 4.34 68.50 4.19L68.50 3.92L67.33 3.92L66.61 3.92L65.42 3.92L65.42 4.19C65.42 4.34 65.52 4.42 65.70 4.44L65.84 4.44C65.91 4.44 66.01 4.45 66.15 4.45C66.29 4.45 66.44 4.47 66.61 4.47L66.61 13.26C66.44 13.26 66.29 13.27 66.15 13.27C66.01 13.27 65.91 13.29 65.84 13.29L65.70 13.29C65.52 13.30 65.42 13.38 65.42 13.54L65.42 13.82L66.61 13.82L67.33 13.82L68.50 13.82L68.50 13.54C68.50 13.38 68.42 13.30 68.24 13.29L68.10 13.29C68.03 13.29 67.93 13.27 67.79 13.27C67.65 13.27 67.49 13.26 67.33 13.26L67.33 9.07L73.53 9.07L73.53 13.26C73.36 13.26 73.22 13.27 73.08 13.27C72.94 13.27 72.83 13.29 72.76 13.29L72.63 13.29C72.45 13.30 72.35 13.38 72.35 13.54L72.35 13.82L73.53 13.82L74.26 13.82L75.43 13.82L75.43 13.54C75.43 13.38 75.33 13.30 75.15 13.29L75.03 13.29C74.96 13.29 74.84 13.27 74.70 13.27C74.56 13.27 74.42 13.26 74.26 13.26L74.26 4.47C74.42 4.47 74.56 4.45 74.70 4.45C74.84 4.45 74.96 4.44 75.03 4.44ZM84.97 3.92L83.78 3.92L83.78 4.19C83.78 4.34 83.87 4.42 84.06 4.44L84.20 4.44C84.27 4.44 84.36 4.45 84.50 4.45C84.64 4.45 84.80 4.47 84.97 4.47L84.97 13.26C84.80 13.26 84.64 13.27 84.50 13.27C84.36 13.27 84.27 13.29 84.20 13.29L84.06 13.29C83.87 13.30 83.79 13.38 83.79 13.54L83.79 13.82L84.97 13.82L90.90 13.82L90.90 13.22L90.90 11.76L90.55 11.76C90.36 11.76 90.27 11.89 90.26 12.11C90.26 12.14 90.24 12.19 90.24 12.29C90.24 12.39 90.24 12.53 90.23 12.74C90.22 12.95 90.20 13.09 90.20 13.22L85.68 13.22L85.68 9.09L89.63 9.09L89.63 8.51L85.68 8.51L85.68 4.51L90.20 4.51C90.23 5.12 90.26 5.50 90.26 5.63C90.27 5.85 90.36 5.96 90.55 5.96L90.90 5.96L90.90 4.51L90.90 3.92ZM107.48 13.29L107.38 13.29L107.20 13.29C107.11 13.29 107.03 13.27 106.95 13.27L103.98 9.53C103.89 9.42 103.78 9.32 103.67 9.25C104.10 9.21 104.50 9.11 104.85 8.96C105.20 8.81 105.48 8.61 105.73 8.37C105.97 8.13 106.16 7.85 106.29 7.55C106.41 7.24 106.48 6.89 106.48 6.51C106.48 5.66 106.20 5.03 105.64 4.58C105.08 4.14 104.23 3.92 103.08 3.92L100.67 3.92L99.50 3.92L99.50 4.19C99.50 4.34 99.58 4.42 99.76 4.44L99.90 4.44C99.97 4.44 100.07 4.45 100.21 4.45C100.35 4.45 100.51 4.47 100.67 4.47L100.67 13.26C100.51 13.26 100.35 13.27 100.21 13.27C100.07 13.27 99.97 13.29 99.90 13.29L99.76 13.29C99.58 13.30 99.48 13.38 99.48 13.54L99.48 13.82L100.67 13.82L101.39 13.82L102.56 13.82L102.56 13.54C102.56 13.38 102.47 13.30 102.28 13.29L102.14 13.29C102.07 13.29 101.98 13.27 101.84 13.27C101.70 13.27 101.56 13.26 101.39 13.26L101.39 9.34L102.56 9.34C102.76 9.34 102.90 9.35 102.98 9.39C103.07 9.44 103.15 9.52 103.24 9.62L106.41 13.64C106.47 13.71 106.51 13.75 106.57 13.78C106.62 13.80 106.69 13.82 106.76 13.82L106.83 13.82L107.38 13.82L107.74 13.82L107.74 13.54C107.74 13.38 107.66 13.30 107.48 13.29ZM102.98 8.81L101.39 8.81L101.39 4.48L103.08 4.48C103.96 4.48 104.64 4.66 105.10 5.00C105.56 5.33 105.78 5.87 105.78 6.57C105.78 6.92 105.73 7.21 105.60 7.49C105.48 7.77 105.28 7.99 105.04 8.19C104.80 8.39 104.51 8.55 104.16 8.65C103.81 8.75 103.42 8.81 102.98 8.81ZM133.84 3.92L133.64 3.92L126.35 3.92L126.14 3.92L126.04 3.92L126.04 5.96L126.39 5.96C126.59 5.96 126.67 5.85 126.69 5.63C126.69 5.53 126.71 5.17 126.74 4.52L129.64 4.52L129.64 13.26C129.47 13.26 129.33 13.27 129.19 13.27C129.05 13.27 128.94 13.29 128.87 13.29L128.74 13.29C128.56 13.30 128.46 13.38 128.46 13.54L128.46 13.82L129.64 13.82L130.35 13.82L131.54 13.82L131.54 13.54C131.54 13.38 131.45 13.30 131.26 13.29L131.12 13.29C131.05 13.29 130.96 13.27 130.82 13.27C130.68 13.27 130.52 13.26 130.35 13.26L130.35 4.52L133.24 4.52C133.28 5.24 133.29 5.60 133.29 5.63C133.31 5.85 133.41 5.96 133.60 5.96L133.94 5.96L133.94 3.92ZM151.77 4.44C151.96 4.42 152.05 4.34 152.05 4.19L152.05 3.92L150.88 3.92L150.15 3.92L148.97 3.92L148.97 4.19C148.97 4.34 149.07 4.42 149.25 4.44L149.38 4.44C149.45 4.44 149.56 4.45 149.70 4.45C149.84 4.45 149.98 4.47 150.15 4.47L150.15 8.53L143.95 8.53L143.95 4.47C144.12 4.47 144.27 4.45 144.41 4.45C144.55 4.45 144.65 4.44 144.72 4.44L144.86 4.44C145.04 4.42 145.12 4.34 145.12 4.19L145.12 3.92L143.95 3.92L143.23 3.92L142.04 3.92L142.04 4.19C142.04 4.34 142.14 4.42 142.32 4.44L142.46 4.44C142.53 4.44 142.63 4.45 142.77 4.45C142.91 4.45 143.07 4.47 143.23 4.47L143.23 13.26C143.07 13.26 142.91 13.27 142.77 13.27C142.63 13.27 142.53 13.29 142.46 13.29L142.32 13.29C142.14 13.30 142.04 13.38 142.04 13.54L142.04 13.82L143.23 13.82L143.95 13.82L145.12 13.82L145.12 13.54C145.12 13.38 145.04 13.30 144.86 13.29L144.72 13.29C144.65 13.29 144.55 13.27 144.41 13.27C144.27 13.27 144.12 13.26 143.95 13.26L143.95 9.07L150.15 9.07L150.15 13.26C149.98 13.26 149.84 13.27 149.70 13.27C149.56 13.27 149.45 13.29 149.38 13.29L149.25 13.29C149.07 13.30 148.97 13.38 148.97 13.54L148.97 13.82L150.15 13.82L150.88 13.82L152.05 13.82L152.05 13.54C152.05 13.38 151.96 13.30 151.77 13.29L151.65 13.29C151.58 13.29 151.47 13.27 151.33 13.27C151.19 13.27 151.05 13.26 150.88 13.26L150.88 4.47C151.05 4.47 151.19 4.45 151.33 4.45C151.47 4.45 151.58 4.44 151.65 4.44ZM161.59 3.92L160.40 3.92L160.40 4.19C160.40 4.34 160.50 4.42 160.68 4.44L160.82 4.44C160.89 4.44 160.99 4.45 161.13 4.45C161.27 4.45 161.42 4.47 161.59 4.47L161.59 13.26C161.42 13.26 161.27 13.27 161.13 13.27C160.99 13.27 160.89 13.29 160.82 13.29L160.68 13.29C160.50 13.30 160.41 13.38 160.41 13.54L160.41 13.82L161.59 13.82L167.52 13.82L167.52 13.22L167.52 11.76L167.17 11.76C166.98 11.76 166.89 11.89 166.88 12.11C166.88 12.14 166.87 12.19 166.87 12.29C166.87 12.39 166.87 12.53 166.85 12.74C166.84 12.95 166.82 13.09 166.82 13.22L162.30 13.22L162.30 9.09L166.25 9.09L166.25 8.51L162.30 8.51L162.30 4.51L166.82 4.51C166.85 5.12 166.88 5.50 166.88 5.63C166.89 5.85 166.98 5.96 167.17 5.96L167.52 5.96L167.52 4.51L167.52 3.92ZM192.71 4.68C192.12 4.17 191.24 3.92 190.08 3.92L187.67 3.92L186.48 3.92L186.48 4.19C186.48 4.34 186.58 4.42 186.76 4.44L186.90 4.44C186.97 4.44 187.07 4.45 187.21 4.45C187.35 4.45 187.50 4.47 187.67 4.47L187.67 13.26C187.50 13.26 187.35 13.27 187.21 13.27C187.07 13.27 186.97 13.29 186.90 13.29L186.76 13.29C186.58 13.30 186.48 13.38 186.48 13.54L186.48 13.82L187.67 13.82L188.38 13.82L189.56 13.82L189.56 13.54C189.56 13.38 189.46 13.30 189.28 13.29L189.15 13.29C189.08 13.29 188.97 13.27 188.83 13.27C188.69 13.27 188.55 13.26 188.38 13.26L188.38 9.83L190.08 9.83C190.62 9.83 191.11 9.74 191.55 9.60C191.98 9.45 192.35 9.25 192.65 8.99C192.96 8.72 193.20 8.41 193.35 8.05C193.52 7.69 193.59 7.29 193.59 6.86C193.59 5.92 193.30 5.18 192.71 4.68ZM192.68 7.81C192.56 8.11 192.37 8.36 192.14 8.57C191.90 8.78 191.60 8.95 191.25 9.07C190.90 9.20 190.51 9.25 190.08 9.25L188.38 9.25L188.38 4.48L190.08 4.48C191.00 4.48 191.70 4.69 192.18 5.10C192.64 5.50 192.88 6.09 192.88 6.85C192.88 7.20 192.81 7.52 192.68 7.81ZM210.10 3.92L209.38 3.92L208.03 3.92L208.03 4.19C208.03 4.34 208.12 4.42 208.31 4.44L208.47 4.44C208.57 4.44 208.71 4.45 208.88 4.45C209.05 4.45 209.22 4.47 209.38 4.47L209.38 10.04C209.38 10.50 209.31 10.92 209.17 11.33C209.03 11.73 208.84 12.08 208.57 12.38C208.31 12.67 208.00 12.89 207.62 13.06C207.24 13.23 206.82 13.31 206.35 13.31C205.87 13.31 205.44 13.23 205.06 13.06C204.68 12.89 204.36 12.66 204.11 12.36C203.84 12.07 203.66 11.72 203.52 11.33C203.38 10.93 203.31 10.50 203.31 10.04L203.31 4.47C203.48 4.47 203.64 4.45 203.81 4.45C203.98 4.45 204.12 4.44 204.22 4.44L204.39 4.44C204.57 4.42 204.67 4.34 204.67 4.19L204.67 3.92L203.31 3.92L202.59 3.92L201.42 3.92L201.42 4.19C201.42 4.34 201.50 4.42 201.68 4.44L201.82 4.44C201.89 4.44 201.99 4.45 202.13 4.45C202.27 4.45 202.43 4.47 202.59 4.47L202.59 10.04C202.59 10.58 202.68 11.09 202.85 11.56C203.01 12.04 203.27 12.46 203.59 12.81C203.91 13.16 204.32 13.44 204.78 13.64C205.24 13.83 205.77 13.93 206.35 13.93C206.92 13.93 207.44 13.83 207.90 13.64C208.36 13.44 208.77 13.16 209.09 12.81C209.41 12.46 209.66 12.04 209.83 11.56C210 11.09 210.10 10.58 210.10 10.04L210.10 4.47C210.27 4.47 210.41 4.45 210.55 4.45C210.69 4.45 210.80 4.44 210.87 4.44L210.99 4.44C211.18 4.42 211.27 4.34 211.27 4.19L211.27 3.92ZM227.29 13.29L227.19 13.29L227.01 13.29C226.93 13.29 226.84 13.27 226.76 13.27L223.79 9.53C223.71 9.42 223.59 9.32 223.48 9.25C223.92 9.21 224.31 9.11 224.66 8.96C225.01 8.81 225.29 8.61 225.54 8.37C225.78 8.13 225.97 7.85 226.10 7.55C226.23 7.24 226.30 6.89 226.30 6.51C226.30 5.66 226.02 5.03 225.46 4.58C224.90 4.14 224.04 3.92 222.89 3.92L220.49 3.92L219.31 3.92L219.31 4.19C219.31 4.34 219.39 4.42 219.58 4.44L219.72 4.44C219.79 4.44 219.88 4.45 220.02 4.45C220.16 4.45 220.32 4.47 220.49 4.47L220.49 13.26C220.32 13.26 220.16 13.27 220.02 13.27C219.88 13.27 219.79 13.29 219.72 13.29L219.58 13.29C219.39 13.30 219.30 13.38 219.30 13.54L219.30 13.82L220.49 13.82L221.20 13.82L222.38 13.82L222.38 13.54C222.38 13.38 222.28 13.30 222.10 13.29L221.96 13.29C221.89 13.29 221.79 13.27 221.65 13.27C221.51 13.27 221.37 13.26 221.20 13.26L221.20 9.34L222.38 9.34C222.57 9.34 222.71 9.35 222.80 9.39C222.88 9.44 222.96 9.52 223.05 9.62L226.23 13.64C226.28 13.71 226.32 13.75 226.38 13.78C226.44 13.80 226.51 13.82 226.58 13.82L226.65 13.82L227.19 13.82L227.56 13.82L227.56 13.54C227.56 13.38 227.47 13.30 227.29 13.29ZM222.80 8.81L221.20 8.81L221.20 4.48L222.89 4.48C223.78 4.48 224.45 4.66 224.91 5.00C225.37 5.33 225.60 5.87 225.60 6.57C225.60 6.92 225.54 7.21 225.41 7.49C225.29 7.77 225.09 7.99 224.85 8.19C224.62 8.39 224.32 8.55 223.97 8.65C223.62 8.75 223.23 8.81 222.80 8.81ZM241.49 9.91C241.35 9.65 241.15 9.39 240.91 9.21C240.67 9.03 240.42 8.88 240.13 8.75C239.83 8.62 239.51 8.51 239.20 8.41C238.90 8.32 238.59 8.20 238.29 8.11C238 7.99 237.73 7.87 237.50 7.71C237.26 7.56 237.08 7.38 236.94 7.15C236.80 6.93 236.71 6.65 236.71 6.31C236.71 6.06 236.77 5.82 236.87 5.59C236.96 5.35 237.10 5.15 237.29 4.97C237.47 4.79 237.69 4.65 237.97 4.55C238.25 4.45 238.56 4.40 238.92 4.40C239.60 4.40 240.21 4.51 240.77 4.75C240.81 5.54 240.84 5.99 240.84 6.06C240.86 6.29 240.94 6.41 241.14 6.41L241.47 6.41L241.47 4.38C240.59 4.00 239.75 3.81 238.92 3.81C238.46 3.81 238.06 3.88 237.69 4.02C237.33 4.16 237.03 4.34 236.80 4.58C236.56 4.82 236.36 5.08 236.24 5.39C236.11 5.70 236.05 6.02 236.05 6.36C236.05 6.78 236.12 7.14 236.26 7.42C236.40 7.70 236.60 7.92 236.84 8.12C237.08 8.32 237.33 8.46 237.62 8.58C237.92 8.71 238.24 8.82 238.55 8.92C238.85 9.02 239.15 9.11 239.46 9.21C239.75 9.31 240.02 9.45 240.25 9.60C240.49 9.76 240.67 9.94 240.81 10.16C240.95 10.39 241.02 10.68 241.02 11.03C241.02 11.35 240.97 11.66 240.86 11.94C240.74 12.22 240.59 12.46 240.38 12.67C240.17 12.88 239.90 13.05 239.60 13.16C239.29 13.29 238.94 13.33 238.55 13.33C237.76 13.33 237.10 13.20 236.57 12.95C236.56 12.75 236.56 12.54 236.54 12.32C236.53 12.10 236.53 11.91 236.52 11.76C236.50 11.61 236.50 11.52 236.50 11.51C236.49 11.28 236.39 11.17 236.19 11.17L235.86 11.17L235.86 13.02L235.86 13.20L235.86 13.38C236.71 13.75 237.59 13.93 238.52 13.93C239.02 13.93 239.47 13.85 239.86 13.69C240.25 13.54 240.59 13.31 240.86 13.05C241.12 12.78 241.35 12.46 241.49 12.10C241.63 11.73 241.70 11.34 241.70 10.92C241.70 10.51 241.63 10.18 241.49 9.91ZM258.27 3.92L257.56 3.92L256.20 3.92L256.20 4.19C256.20 4.34 256.30 4.42 256.48 4.44L256.65 4.44C256.75 4.44 256.89 4.45 257.05 4.45C257.22 4.45 257.39 4.47 257.56 4.47L257.56 10.04C257.56 10.50 257.49 10.92 257.35 11.33C257.21 11.73 257.01 12.08 256.75 12.38C256.48 12.67 256.17 12.89 255.79 13.06C255.42 13.23 255.00 13.31 254.52 13.31C254.04 13.31 253.61 13.23 253.23 13.06C252.85 12.89 252.53 12.66 252.28 12.36C252.01 12.07 251.83 11.72 251.69 11.33C251.55 10.93 251.48 10.50 251.48 10.04L251.48 4.47C251.65 4.47 251.82 4.45 251.99 4.45C252.15 4.45 252.29 4.44 252.39 4.44L252.56 4.44C252.74 4.42 252.84 4.34 252.84 4.19L252.84 3.92L251.48 3.92L250.77 3.92L249.59 3.92L249.59 4.19C249.59 4.34 249.68 4.42 249.86 4.44L250.00 4.44C250.07 4.44 250.17 4.45 250.31 4.45C250.45 4.45 250.60 4.47 250.77 4.47L250.77 10.04C250.77 10.58 250.85 11.09 251.02 11.56C251.19 12.04 251.44 12.46 251.76 12.81C252.08 13.16 252.49 13.44 252.95 13.64C253.41 13.83 253.95 13.93 254.52 13.93C255.09 13.93 255.61 13.83 256.07 13.64C256.54 13.44 256.94 13.16 257.26 12.81C257.59 12.46 257.84 12.04 258.01 11.56C258.17 11.09 258.27 10.58 258.27 10.04L258.27 4.47C258.44 4.47 258.58 4.45 258.72 4.45C258.86 4.45 258.97 4.44 259.04 4.44L259.17 4.44C259.35 4.42 259.45 4.34 259.45 4.19L259.45 3.92ZM270.28 4.44C270.47 4.42 270.55 4.34 270.55 4.19L270.55 3.91L269.37 3.91L268.66 3.91L267.47 3.91L267.47 4.19C267.47 4.34 267.57 4.42 267.75 4.44L267.89 4.44C267.96 4.44 268.06 4.45 268.20 4.45C268.34 4.45 268.49 4.47 268.66 4.47L268.66 13.26C268.49 13.26 268.34 13.27 268.20 13.27C268.06 13.27 267.96 13.29 267.89 13.29L267.75 13.29C267.57 13.30 267.47 13.38 267.47 13.54L267.47 13.82L268.66 13.82L269.37 13.82L270.55 13.82L270.55 13.54C270.55 13.38 270.47 13.30 270.28 13.29L270.14 13.29C270.07 13.29 269.98 13.27 269.84 13.27C269.70 13.27 269.54 13.26 269.37 13.26L269.37 4.47C269.54 4.47 269.70 4.45 269.84 4.45C269.98 4.45 270.07 4.44 270.14 4.44ZM286.41 3.92L286.22 3.92L278.92 3.92L278.71 3.92L278.61 3.92L278.61 5.96L278.96 5.96C279.16 5.96 279.24 5.85 279.26 5.63C279.26 5.53 279.29 5.17 279.31 4.52L282.21 4.52L282.21 13.26C282.04 13.26 281.90 13.27 281.76 13.27C281.62 13.27 281.51 13.29 281.44 13.29L281.32 13.29C281.13 13.30 281.04 13.38 281.04 13.54L281.04 13.82L282.21 13.82L282.93 13.82L284.12 13.82L284.12 13.54C284.12 13.38 284.02 13.30 283.84 13.29L283.70 13.29C283.63 13.29 283.53 13.27 283.39 13.27C283.25 13.27 283.09 13.26 282.93 13.26L282.93 4.52L285.81 4.52C285.85 5.24 285.87 5.60 285.87 5.63C285.88 5.85 285.98 5.96 286.17 5.96L286.51 5.96L286.51 3.92ZM314.26 8.86C314.26 8.11 314.13 7.41 313.91 6.79C313.68 6.17 313.36 5.64 312.94 5.19C312.52 4.75 312.03 4.40 311.46 4.16C310.88 3.92 310.23 3.79 309.53 3.79C308.83 3.79 308.20 3.92 307.62 4.16C307.05 4.40 306.54 4.75 306.12 5.19C305.70 5.64 305.38 6.17 305.16 6.79C304.93 7.41 304.81 8.11 304.81 8.86C304.81 9.63 304.93 10.33 305.16 10.95C305.38 11.56 305.70 12.10 306.12 12.54C306.54 12.99 307.05 13.33 307.62 13.57C308.20 13.80 308.83 13.93 309.53 13.93C310.23 13.93 310.88 13.80 311.46 13.57C312.03 13.33 312.52 12.99 312.94 12.54C313.36 12.10 313.68 11.56 313.91 10.95C314.13 10.33 314.26 9.63 314.26 8.86ZM313.50 8.86C313.50 9.56 313.42 10.18 313.22 10.72C313.03 11.27 312.76 11.75 312.41 12.12C312.06 12.50 311.64 12.81 311.15 13.01C310.66 13.20 310.13 13.30 309.53 13.30C308.94 13.30 308.41 13.20 307.92 13.01C307.43 12.81 307.01 12.50 306.66 12.12C306.31 11.75 306.03 11.27 305.83 10.72C305.63 10.18 305.55 9.56 305.55 8.86C305.55 8.18 305.63 7.55 305.83 7.00C306.03 6.45 306.31 5.98 306.66 5.60C307.01 5.22 307.43 4.91 307.92 4.72C308.41 4.52 308.94 4.41 309.53 4.41C310.13 4.41 310.66 4.52 311.15 4.72C311.64 4.91 312.06 5.22 312.41 5.60C312.76 5.98 313.03 6.45 313.22 7.00C313.42 7.55 313.50 8.18 313.50 8.86ZM329.66 3.92L329.31 3.92L323.72 3.92L322.53 3.92L322.53 4.19C322.53 4.34 322.63 4.42 322.81 4.44L322.95 4.44C323.02 4.44 323.12 4.45 323.26 4.45C323.40 4.45 323.55 4.47 323.72 4.47L323.72 13.26C323.55 13.26 323.40 13.27 323.26 13.27C323.12 13.27 323.02 13.29 322.95 13.29L322.81 13.29C322.63 13.30 322.53 13.38 322.53 13.54L322.53 13.82L323.72 13.82L324.44 13.82L325.61 13.82L325.61 13.54C325.61 13.38 325.53 13.30 325.35 13.29L325.21 13.29C325.14 13.29 325.04 13.27 324.90 13.27C324.76 13.27 324.60 13.26 324.44 13.26L324.44 9.27L328.13 9.27L328.13 8.67L324.44 8.67L324.44 4.51L329.04 4.51C329.07 5.18 329.10 5.56 329.10 5.63C329.11 5.85 329.21 5.96 329.41 5.96L329.74 5.96L329.74 3.92ZM356.73 13.29L356.65 13.29L356.47 13.29C356.38 13.29 356.29 13.27 356.19 13.27L352.16 9.06C352.07 8.96 352.00 8.89 351.92 8.83C351.83 8.78 351.75 8.74 351.65 8.71C351.74 8.68 351.81 8.64 351.88 8.58C351.95 8.53 352.03 8.46 352.11 8.36L355.91 4.45L356.17 4.45C356.26 4.45 356.31 4.44 356.36 4.44L356.44 4.44C356.62 4.42 356.72 4.34 356.72 4.19L356.72 3.91L355.74 3.91L355.61 3.91L353.81 3.91L353.81 4.19C353.81 4.34 353.91 4.42 354.09 4.44L354.26 4.44C354.35 4.44 354.48 4.45 354.65 4.45L355.10 4.45L351.43 8.22C351.37 8.27 351.32 8.33 351.27 8.36C351.23 8.39 351.18 8.40 351.12 8.43C351.06 8.44 351.02 8.47 350.95 8.47C350.88 8.48 350.80 8.48 350.71 8.48L350.13 8.48L350.13 4.45C350.29 4.45 350.45 4.44 350.59 4.44C350.73 4.44 350.83 4.42 350.90 4.42L351.04 4.42C351.22 4.41 351.30 4.33 351.30 4.17L351.30 3.91L350.13 3.91L349.41 3.91L348.24 3.91L348.24 4.17C348.24 4.33 348.33 4.41 348.52 4.42L348.64 4.42C348.71 4.42 348.82 4.44 348.96 4.44C349.10 4.44 349.24 4.45 349.41 4.45L349.41 13.26C349.24 13.26 349.10 13.27 348.96 13.27C348.82 13.27 348.71 13.29 348.64 13.29L348.52 13.29C348.33 13.30 348.24 13.38 348.24 13.54L348.24 13.82L349.41 13.82L350.13 13.82L351.30 13.82L351.30 13.54C351.30 13.38 351.22 13.30 351.04 13.29L350.90 13.29C350.83 13.29 350.73 13.27 350.59 13.27C350.45 13.27 350.29 13.26 350.13 13.26L350.13 9.04L350.77 9.04C350.88 9.04 350.98 9.04 351.05 9.06C351.12 9.07 351.18 9.09 351.23 9.11C351.29 9.14 351.34 9.17 351.39 9.21C351.43 9.25 351.47 9.28 351.53 9.34L355.38 13.27C355.24 13.27 355.07 13.29 354.90 13.29L354.49 13.29L354.31 13.29C354.13 13.30 354.03 13.38 354.03 13.54L354.03 13.82L355.91 13.82L355.96 13.82L356.13 13.82L356.72 13.82L357.01 13.82L357.01 13.54C357.01 13.38 356.92 13.30 356.73 13.29ZM374.12 3.92L373.49 3.92L372.27 3.92L372.27 4.19C372.27 4.34 372.37 4.42 372.55 4.44L372.69 4.44C372.76 4.44 372.88 4.45 373.02 4.45C373.16 4.45 373.32 4.47 373.49 4.47L373.49 12.22C373.49 12.35 373.49 12.49 373.51 12.63L367.09 4.05C367.05 3.99 367.02 3.95 366.98 3.93C366.94 3.92 366.90 3.91 366.83 3.91L366.48 3.91L365.29 3.91L365.29 4.19C365.29 4.34 365.39 4.42 365.57 4.44L365.71 4.44C365.78 4.44 365.88 4.45 366.02 4.45C366.16 4.45 366.31 4.47 366.48 4.47L366.48 13.26C366.31 13.26 366.16 13.27 366.02 13.27C365.88 13.27 365.78 13.29 365.71 13.29L365.57 13.29C365.39 13.30 365.29 13.38 365.29 13.54L365.29 13.82L366.48 13.82L367.09 13.82L368.31 13.82L368.31 13.54C368.31 13.38 368.21 13.30 368.03 13.29L367.89 13.29C367.82 13.29 367.70 13.27 367.56 13.27C367.42 13.27 367.26 13.26 367.09 13.26L367.09 5.49C367.09 5.36 367.09 5.22 367.08 5.08L373.52 13.68C373.59 13.78 373.66 13.82 373.77 13.82L374.12 13.82L374.12 4.47C374.29 4.47 374.43 4.45 374.57 4.45C374.71 4.45 374.82 4.44 374.89 4.44L375.02 4.44C375.20 4.42 375.30 4.34 375.30 4.19L375.30 3.92ZM392.60 8.86C392.60 8.11 392.48 7.41 392.25 6.79C392.03 6.17 391.71 5.64 391.29 5.19C390.87 4.75 390.38 4.40 389.80 4.16C389.23 3.92 388.57 3.79 387.87 3.79C387.17 3.79 386.54 3.92 385.97 4.16C385.39 4.40 384.89 4.75 384.47 5.19C384.05 5.64 383.73 6.17 383.50 6.79C383.28 7.41 383.15 8.11 383.15 8.86C383.15 9.63 383.28 10.33 383.50 10.95C383.73 11.56 384.05 12.10 384.47 12.54C384.89 12.99 385.39 13.33 385.97 13.57C386.54 13.80 387.17 13.93 387.87 13.93C388.57 13.93 389.23 13.80 389.80 13.57C390.38 13.33 390.87 12.99 391.29 12.54C391.71 12.10 392.03 11.56 392.25 10.95C392.48 10.33 392.60 9.63 392.60 8.86ZM391.85 8.86C391.85 9.56 391.76 10.18 391.57 10.72C391.37 11.27 391.10 11.75 390.75 12.12C390.40 12.50 389.98 12.81 389.49 13.01C389.00 13.20 388.47 13.30 387.87 13.30C387.28 13.30 386.75 13.20 386.26 13.01C385.77 12.81 385.35 12.50 385.00 12.12C384.65 11.75 384.37 11.27 384.17 10.72C383.98 10.18 383.89 9.56 383.89 8.86C383.89 8.18 383.98 7.55 384.17 7.00C384.37 6.45 384.65 5.98 385.00 5.60C385.35 5.22 385.77 4.91 386.26 4.72C386.75 4.52 387.28 4.41 387.87 4.41C388.47 4.41 389.00 4.52 389.49 4.72C389.98 4.91 390.40 5.22 390.75 5.60C391.10 5.98 391.37 6.45 391.57 7.00C391.76 7.55 391.85 8.18 391.85 8.86ZM414.12 3.92L413.57 3.92L413.53 3.92L412.06 3.92L412.06 4.19C412.06 4.34 412.15 4.42 412.33 4.44L412.45 4.44C412.51 4.44 412.61 4.45 412.75 4.45C412.89 4.45 413.03 4.47 413.20 4.47L410.82 12.24C410.79 12.33 410.76 12.43 410.75 12.54C410.73 12.66 410.70 12.75 410.68 12.87C410.65 12.75 410.63 12.63 410.61 12.53L410.52 12.24L407.72 4.10C407.69 4.05 407.67 3.99 407.62 3.96C407.58 3.93 407.53 3.92 407.46 3.92L407.26 3.92C407.19 3.92 407.13 3.93 407.09 3.98C407.05 4.02 407.01 4.05 406.99 4.10L404.19 12.25C404.17 12.35 404.14 12.43 404.11 12.54C404.08 12.64 404.07 12.75 404.04 12.88C404.03 12.78 404.00 12.67 403.97 12.54C403.96 12.43 403.93 12.33 403.90 12.24L401.52 4.47C401.69 4.47 401.83 4.45 401.95 4.45C402.08 4.45 402.16 4.44 402.22 4.44L402.33 4.44C402.51 4.42 402.61 4.34 402.61 4.19L402.61 3.92L401.14 3.92L400.55 3.92L399.95 3.92L399.95 4.19C399.95 4.34 400.05 4.42 400.23 4.44L400.33 4.44C400.37 4.44 400.41 4.45 400.48 4.45C400.55 4.45 400.64 4.47 400.72 4.47L403.68 13.82L404.31 13.82L407.25 5.22C407.29 5.11 407.32 5.00 407.34 4.87C407.37 5.00 407.40 5.11 407.44 5.22L410.37 13.82L411.01 13.82L413.95 4.47C414.04 4.47 414.11 4.45 414.18 4.45C414.25 4.45 414.30 4.44 414.34 4.44L414.44 4.44C414.62 4.42 414.71 4.34 414.71 4.19L414.71 3.92ZM429.13 11.97C428.93 11.97 428.85 12.08 428.83 12.31C428.83 12.32 428.83 12.38 428.82 12.43C428.81 12.49 428.81 12.59 428.79 12.71C428.78 12.84 428.76 13.01 428.75 13.20L424.66 13.20L424.66 4.47C424.83 4.47 424.97 4.45 425.11 4.45C425.25 4.45 425.36 4.44 425.43 4.44L425.56 4.44C425.74 4.42 425.84 4.34 425.84 4.19L425.84 3.92L424.66 3.92L423.95 3.92L422.76 3.92L422.76 4.19C422.76 4.34 422.86 4.42 423.04 4.44L423.18 4.44C423.25 4.44 423.35 4.45 423.49 4.45C423.63 4.45 423.78 4.47 423.95 4.47L423.95 13.26C423.78 13.26 423.63 13.27 423.49 13.27C423.35 13.27 423.25 13.29 423.18 13.29L423.04 13.29C422.86 13.30 422.76 13.38 422.76 13.54L422.76 13.82L423.95 13.82L429.23 13.82L429.35 13.82L429.48 13.82L429.48 13.55L429.48 12.99L429.48 11.97L429.20 11.97ZM439.10 3.92L437.91 3.92L437.91 4.19C437.91 4.34 438.00 4.42 438.19 4.44L438.33 4.44C438.40 4.44 438.49 4.45 438.63 4.45C438.77 4.45 438.93 4.47 439.10 4.47L439.10 13.26C438.93 13.26 438.77 13.27 438.63 13.27C438.49 13.27 438.40 13.29 438.33 13.29L438.19 13.29C438.00 13.30 437.92 13.38 437.92 13.54L437.92 13.82L439.10 13.82L445.03 13.82L445.03 13.22L445.03 11.76L444.68 11.76C444.49 11.76 444.40 11.89 444.39 12.11C444.39 12.14 444.37 12.19 444.37 12.29C444.37 12.39 444.37 12.53 444.36 12.74C444.35 12.95 444.33 13.09 444.33 13.22L439.81 13.22L439.81 9.09L443.76 9.09L443.76 8.51L439.81 8.51L439.81 4.51L444.33 4.51C444.36 5.12 444.39 5.50 444.39 5.63C444.40 5.85 444.49 5.96 444.68 5.96L445.03 5.96L445.03 4.51L445.03 3.92ZM462.62 6.80C462.39 6.19 462.07 5.68 461.65 5.25C461.23 4.82 460.74 4.48 460.17 4.26C459.59 4.03 458.93 3.92 458.23 3.92L454.80 3.92L453.61 3.92L453.61 4.19C453.61 4.34 453.71 4.42 453.89 4.44L454.03 4.44C454.10 4.44 454.20 4.45 454.34 4.45C454.48 4.45 454.64 4.47 454.80 4.47L454.80 13.26C454.64 13.26 454.48 13.27 454.34 13.27C454.20 13.27 454.10 13.29 454.03 13.29L453.89 13.29C453.71 13.30 453.61 13.38 453.61 13.54L453.61 13.82L454.80 13.82L458.23 13.82C458.93 13.82 459.59 13.71 460.17 13.48C460.74 13.26 461.23 12.92 461.65 12.49C462.07 12.05 462.39 11.54 462.62 10.92C462.84 10.30 462.97 9.63 462.97 8.86C462.97 8.11 462.84 7.42 462.62 6.80ZM461.93 10.72C461.73 11.27 461.48 11.72 461.13 12.10C460.78 12.47 460.36 12.75 459.87 12.95C459.38 13.15 458.84 13.24 458.23 13.24L455.52 13.24L455.52 4.49L458.23 4.49C458.84 4.49 459.38 4.59 459.87 4.79C460.36 4.98 460.78 5.26 461.13 5.64C461.48 6.02 461.73 6.47 461.93 7.01C462.13 7.56 462.22 8.18 462.22 8.86C462.22 9.56 462.13 10.18 461.93 10.72ZM476.90 9.32L476.90 9.72C476.90 9.76 476.92 9.80 476.95 9.83C476.98 9.86 477.02 9.87 477.08 9.87L478.98 9.87L478.98 12.54C478.76 12.67 478.53 12.78 478.32 12.88C478.11 12.98 477.88 13.08 477.64 13.15C477.40 13.22 477.13 13.27 476.85 13.30C476.57 13.33 476.27 13.34 475.93 13.34C475.31 13.34 474.75 13.24 474.25 13.03C473.75 12.82 473.31 12.53 472.95 12.15C472.58 11.77 472.30 11.30 472.11 10.74C471.91 10.18 471.80 9.56 471.80 8.86C471.80 8.18 471.91 7.56 472.11 7.01C472.30 6.47 472.58 5.99 472.95 5.61C473.31 5.24 473.76 4.94 474.28 4.73C474.80 4.52 475.37 4.42 476.01 4.42C477.19 4.42 478.13 4.58 478.81 4.90C478.86 5.81 478.88 6.31 478.88 6.41C478.90 6.64 479.00 6.75 479.19 6.75L479.53 6.75L479.53 4.51C479.09 4.31 478.53 4.14 477.83 4.00C477.13 3.86 476.55 3.81 476.04 3.81C475.29 3.81 474.60 3.92 473.98 4.16C473.37 4.40 472.85 4.75 472.42 5.18C471.98 5.61 471.66 6.15 471.42 6.78C471.18 7.39 471.07 8.09 471.07 8.86C471.07 9.63 471.18 10.32 471.42 10.95C471.66 11.58 471.98 12.10 472.40 12.54C472.82 12.99 473.34 13.33 473.93 13.57C474.52 13.80 475.16 13.93 475.87 13.93C476.29 13.93 476.67 13.90 477.02 13.86C477.37 13.80 477.69 13.73 478.00 13.65C478.31 13.55 478.59 13.44 478.86 13.30C479.12 13.16 479.37 13.01 479.63 12.84L479.63 9.32ZM489.22 3.92L488.03 3.92L488.03 4.19C488.03 4.34 488.12 4.42 488.31 4.44L488.45 4.44C488.52 4.44 488.61 4.45 488.75 4.45C488.89 4.45 489.05 4.47 489.22 4.47L489.22 13.26C489.05 13.26 488.89 13.27 488.75 13.27C488.61 13.27 488.52 13.29 488.45 13.29L488.31 13.29C488.12 13.30 488.04 13.38 488.04 13.54L488.04 13.82L489.22 13.82L495.15 13.82L495.15 13.22L495.15 11.76L494.80 11.76C494.61 11.76 494.52 11.89 494.51 12.11C494.51 12.14 494.49 12.19 494.49 12.29C494.49 12.39 494.49 12.53 494.48 12.74C494.47 12.95 494.45 13.09 494.45 13.22L489.93 13.22L489.93 9.09L493.88 9.09L493.88 8.51L489.93 8.51L489.93 4.51L494.45 4.51C494.48 5.12 494.51 5.50 494.51 5.63C494.52 5.85 494.61 5.96 494.80 5.96L495.15 5.96L495.15 4.51L495.15 3.92Z"></path></g></svg>