<svg data-v-fde0c5aa="" xmlns="http://www.w3.org/2000/svg" viewBox="0 0 300 300" class="font"><!----><defs data-v-fde0c5aa=""><!----></defs><rect data-v-fde0c5aa="" fill="#EADEE5" x="0" y="0" width="300px" height="300px" class="logo-background-square"></rect><defs data-v-fde0c5aa=""><linearGradient data-v-fde0c5aa="" gradientTransform="rotate(25)" id="0bd7d005-198e-4ef5-82dd-9b959fb1f50f" x1="0%" y1="0%" x2="100%" y2="0%"><stop data-v-fde0c5aa="" offset="0%" stop-color="#3C1143" stop-opacity="1"></stop><stop data-v-fde0c5aa="" offset="100%" stop-color="#C25178" stop-opacity="1"></stop></linearGradient></defs><g data-v-fde0c5aa="" id="5b399fe5-3225-43ce-8e9f-690153cde5df" fill="url(#0bd7d005-198e-4ef5-82dd-9b959fb1f50f)" transform="matrix(2.513998338812937,0,0,2.513998338812937,39.77374014051609,133.63387023891923)"><path d="M7.70 12.88L8.61 12.88L4.81 2.38L3.89 2.38L0.09 12.88L1.02 12.88L1.91 10.34L6.81 10.34ZM2.19 9.54L4.36 3.38L6.53 9.54ZM13.20 13.02C14.79 13.02 16.14 11.99 16.63 10.57L15.77 10.57C15.31 11.55 14.32 12.20 13.20 12.20C11.64 12.20 10.36 10.97 10.36 9.38C10.36 7.79 11.64 6.56 13.20 6.56C14.32 6.56 15.31 7.21 15.77 8.19L16.63 8.19C16.14 6.77 14.79 5.74 13.20 5.74C11.18 5.74 9.56 7.37 9.56 9.38C9.56 11.39 11.18 13.02 13.20 13.02ZM21.70 13.02C23.29 13.02 24.64 11.99 25.13 10.57L24.27 10.57C23.82 11.55 22.82 12.20 21.70 12.20C20.14 12.20 18.87 10.97 18.87 9.38C18.87 7.79 20.14 6.56 21.70 6.56C22.82 6.56 23.82 7.21 24.27 8.19L25.13 8.19C24.64 6.77 23.29 5.74 21.70 5.74C19.69 5.74 18.06 7.37 18.06 9.38C18.06 11.39 19.69 13.02 21.70 13.02ZM33.83 9.28C33.76 7.28 32.18 5.74 30.21 5.74C28.19 5.74 26.57 7.37 26.57 9.38C26.57 11.39 28.19 13.02 30.21 13.02C31.85 13.02 33.23 11.94 33.69 10.43L32.83 10.43C32.41 11.48 31.40 12.20 30.21 12.20C28.67 12.20 27.41 10.99 27.37 9.47L33.83 9.47ZM30.21 6.56C31.52 6.56 32.64 7.47 32.94 8.71L27.46 8.71C27.76 7.46 28.86 6.56 30.21 6.56ZM37.66 13.02C38.85 13.02 39.83 12.21 39.83 11.08C39.83 9.82 38.80 9.36 37.87 8.98C37.01 8.63 36.44 8.38 36.44 7.63C36.44 6.88 37.00 6.56 37.63 6.56C38.12 6.56 38.57 6.75 38.82 7.17L39.52 6.79C39.23 6.23 38.43 5.74 37.59 5.74C36.63 5.74 35.61 6.39 35.61 7.67C35.61 8.80 36.42 9.31 37.57 9.75C38.41 10.08 39.01 10.36 39.01 11.06C39.01 11.79 38.38 12.21 37.66 12.21C36.93 12.21 36.21 11.79 36.07 11.24L35.28 11.55C35.56 12.37 36.58 13.02 37.66 13.02ZM43.51 13.02C44.70 13.02 45.68 12.21 45.68 11.08C45.68 9.82 44.64 9.36 43.72 8.98C42.86 8.63 42.28 8.38 42.28 7.63C42.28 6.88 42.84 6.56 43.47 6.56C43.96 6.56 44.41 6.75 44.66 7.17L45.36 6.79C45.08 6.23 44.27 5.74 43.44 5.74C42.47 5.74 41.46 6.39 41.46 7.67C41.46 8.80 42.26 9.31 43.42 9.75C44.26 10.08 44.85 10.36 44.85 11.06C44.85 11.79 44.22 12.21 43.51 12.21C42.77 12.21 42.05 11.79 41.91 11.24L41.13 11.55C41.41 12.37 42.42 13.02 43.51 13.02ZM51.64 8.03C53.04 7.88 54.13 6.70 54.13 5.25C54.13 3.66 52.85 2.38 51.26 2.38L47.67 2.38L47.67 12.88L48.51 12.88L48.51 8.07L50.78 8.07L53.81 12.88L54.77 12.88ZM48.51 7.26L48.51 3.22L51.20 3.22C52.38 3.22 53.29 4.08 53.29 5.25C53.29 6.41 52.38 7.26 51.20 7.26ZM63.14 9.28C63.07 7.28 61.50 5.74 59.52 5.74C57.51 5.74 55.88 7.37 55.88 9.38C55.88 11.39 57.51 13.02 59.52 13.02C61.16 13.02 62.55 11.94 63 10.43L62.14 10.43C61.72 11.48 60.71 12.20 59.52 12.20C57.98 12.20 56.72 10.99 56.68 9.47L63.14 9.47ZM59.52 6.56C60.83 6.56 61.95 7.47 62.25 8.71L56.77 8.71C57.07 7.46 58.17 6.56 59.52 6.56ZM72.82 12.21C72.38 12.21 72.06 11.92 72.06 11.25L72.06 5.88L71.24 5.88L71.24 7.09C70.58 6.27 69.56 5.74 68.42 5.74C66.41 5.74 64.78 7.37 64.78 9.38C64.78 11.39 66.41 13.02 68.42 13.02C69.58 13.02 70.61 12.48 71.26 11.62C71.38 12.46 71.92 13.02 72.77 13.02C72.96 13.02 73.15 12.97 73.29 12.88L73.29 12.21ZM68.42 12.20C66.85 12.20 65.59 10.96 65.59 9.38C65.59 7.81 66.85 6.56 68.42 6.56C69.98 6.56 71.24 7.81 71.24 9.38C71.24 10.96 69.98 12.20 68.42 12.20ZM74.85 12.88L75.67 12.88L75.67 0L74.85 0ZM85.12 5.74C84.25 5.74 83.46 6.21 83.02 6.91C82.56 6.20 81.80 5.74 80.99 5.74C80.29 5.74 79.64 6.09 79.22 6.65L79.22 5.88L78.40 5.88L78.40 12.88L79.22 12.88L79.22 8.33C79.22 7.32 79.96 6.56 80.90 6.56C81.85 6.56 82.60 7.32 82.60 8.33L82.60 12.88L83.42 12.88L83.42 8.33C83.42 7.32 84.17 6.56 85.10 6.56C86.05 6.56 86.80 7.32 86.80 8.33L86.80 12.88L87.60 12.88L87.60 8.33C87.60 6.88 86.50 5.74 85.12 5.74Z"></path></g><!----><!----></svg>