<?xml version="1.0" encoding="UTF-8" standalone="no"?>
<!-- Created with Inkscape (http://www.inkscape.org/) -->

<svg
   width="1280"
   height="720"
   viewBox="0 0 338.66667 190.5"
   version="1.1"
   id="svg1"
   inkscape:version="1.3.2 (091e20e, 2023-11-25, custom)"
   sodipodi:docname="design.svg"
   xml:space="preserve"
   xmlns:inkscape="http://www.inkscape.org/namespaces/inkscape"
   xmlns:sodipodi="http://sodipodi.sourceforge.net/DTD/sodipodi-0.dtd"
   xmlns="http://www.w3.org/2000/svg"
   xmlns:svg="http://www.w3.org/2000/svg"><sodipodi:namedview
     id="namedview1"
     pagecolor="#ffffff"
     bordercolor="#000000"
     borderopacity="0.25"
     inkscape:showpageshadow="2"
     inkscape:pageopacity="0.0"
     inkscape:pagecheckerboard="0"
     inkscape:deskcolor="#d1d1d1"
     inkscape:document-units="mm"
     inkscape:zoom="0.82109378"
     inkscape:cx="1814.0437"
     inkscape:cy="358.66792"
     inkscape:window-width="1920"
     inkscape:window-height="986"
     inkscape:window-x="-11"
     inkscape:window-y="-11"
     inkscape:window-maximized="1"
     inkscape:current-layer="layer3"><inkscape:page
       x="0"
       y="0"
       width="338.66666"
       height="190.5"
       id="page2"
       margin="0"
       bleed="0" /><inkscape:page
       x="348.66666"
       y="0"
       width="338.66666"
       height="190.5"
       id="page3"
       margin="0"
       bleed="0" /><inkscape:page
       x="0"
       y="217.63097"
       width="338.66666"
       height="190.5"
       id="page1"
       margin="0"
       bleed="0" /><inkscape:page
       x="350.65234"
       y="217.63097"
       width="338.66666"
       height="190.5"
       id="page4"
       margin="0"
       bleed="0" /></sodipodi:namedview><defs
     id="defs1"><rect
       x="142.78515"
       y="261.2407"
       width="88.9698"
       height="141.236"
       id="rect11" /><rect
       x="142.78481"
       y="193.41772"
       width="589.36709"
       height="390.88608"
       id="rect10" /><filter
       style="color-interpolation-filters:sRGB;"
       inkscape:label="Drop Shadow"
       id="filter75"
       x="-0.00496063"
       y="-0.074742216"
       width="1.0099213"
       height="1.180627"><feFlood
         result="flood"
         in="SourceGraphic"
         flood-opacity="0.498039"
         flood-color="rgb(0,0,0)"
         id="feFlood74" /><feGaussianBlur
         result="blur"
         in="SourceGraphic"
         stdDeviation="0.700000"
         id="feGaussianBlur74" /><feOffset
         result="offset"
         in="blur"
         dx="0.000000"
         dy="0.700000"
         id="feOffset74" /><feComposite
         result="comp1"
         operator="in"
         in="flood"
         in2="offset"
         id="feComposite74" /><feComposite
         result="comp2"
         operator="over"
         in="SourceGraphic"
         in2="comp1"
         id="feComposite75" /></filter><filter
       inkscape:collect="always"
       style="color-interpolation-filters:sRGB"
       id="filter36"
       x="-0.020391845"
       y="-0.033325364"
       width="1.0407837"
       height="1.0666507"><feGaussianBlur
         inkscape:collect="always"
         stdDeviation="2.0612627"
         id="feGaussianBlur36" /></filter></defs><g
     inkscape:groupmode="layer"
     id="layer2"
     inkscape:label="Color Palette"><rect
       style="fill:#000000;stroke-width:6.765;stroke-linecap:round;stroke-linejoin:round"
       id="rect2"
       width="11.841055"
       height="11.841055"
       x="16.442324"
       y="-14.379204" /><rect
       style="fill:#545454;fill-opacity:1;stroke-width:6.765;stroke-linecap:round;stroke-linejoin:round"
       id="rect3"
       width="11.841055"
       height="11.841055"
       x="28.283909"
       y="-14.379204" /><rect
       style="fill:#757575;fill-opacity:1;stroke-width:6.765;stroke-linecap:round;stroke-linejoin:round"
       id="rect9"
       width="11.841055"
       height="11.841055"
       x="40.125492"
       y="-14.379204" /><rect
       style="fill:#adadad;fill-opacity:1;stroke-width:6.765;stroke-linecap:round;stroke-linejoin:round"
       id="rect14"
       width="11.841055"
       height="11.841055"
       x="51.967075"
       y="-14.379204" /><rect
       style="fill:#ffffff;stroke-width:6.765;stroke-linecap:round;stroke-linejoin:round"
       id="rect15"
       width="11.841055"
       height="11.841055"
       x="63.808662"
       y="-14.379204" /></g><g
     inkscape:groupmode="layer"
     id="layer4"
     inkscape:label="Homepage"><rect
       style="fill:#656565;stroke-width:6.765;stroke-linecap:round;stroke-linejoin:round"
       id="rect4"
       width="338.66666"
       height="190.5"
       x="0"
       y="0"
       ry="0"
       inkscape:label="bg" /><g
       id="hero_section"
       inkscape:label="hero_section"><rect
         style="font-variation-settings:'wdth' 75, 'wght' 300;fill:#ffffff;stroke-width:6.765;stroke-linecap:round;stroke-linejoin:round;fill-opacity:1"
         id="hero_bg"
         width="338.66666"
         height="168.02274"
         x="-8.3333333e-07"
         y="22.477257"
         inkscape:label="hero_bg" /><text
         xml:space="preserve"
         transform="matrix(0.26458333,0,0,0.26458333,-13.396624,-14.133444)"
         id="h1"
         style="font-style:normal;font-variant:normal;font-weight:normal;font-stretch:normal;font-size:64px;line-height:1.6;font-family:'MV Boli';-inkscape-font-specification:'MV Boli, Normal';font-variant-ligatures:normal;font-variant-caps:normal;font-variant-numeric:normal;font-variant-east-asian:normal;word-spacing:0px;white-space:pre;shape-inside:url(#rect10);display:inline;fill:#000000;fill-opacity:1;stroke-width:25.5685;stroke-linecap:round;stroke-linejoin:round"
         inkscape:label="h1"><tspan
           x="142.78516"
           y="261.2407"
           id="tspan2"><tspan
             style="display:inline"
             id="tspan1">A Place to  </tspan></tspan><tspan
           x="142.78516"
           y="363.64069"
           id="tspan5"><tspan
             style="display:inline"
             id="tspan3">connect with the </tspan></tspan><tspan
           x="142.78516"
           y="466.04069"
           id="tspan7"><tspan
             style="display:inline"
             id="tspan6">world</tspan></tspan></text><text
         xml:space="preserve"
         style="font-style:normal;font-variant:normal;font-weight:normal;font-stretch:normal;font-size:5.64444px;line-height:1.6;font-family:'MV Boli';-inkscape-font-specification:'MV Boli, Normal';font-variant-ligatures:normal;font-variant-caps:normal;font-variant-numeric:normal;font-variant-east-asian:normal;word-spacing:0px;white-space:pre;inline-size:156.3;display:inline;fill:#000000;fill-opacity:1;stroke-width:6.765;stroke-linecap:round;stroke-linejoin:round"
         x="32.151897"
         y="128.07173"
         id="text11"
         transform="translate(-9.5250005,-6.879167)"><tspan
           x="32.151897"
           y="128.07173"
           id="tspan9">Lorem ipsum dolor sit amet, consectetur adipiscing elit. </tspan><tspan
           x="32.151897"
           y="137.10283"
           id="tspan10">Proin laoreet nec augue vitae consequat. Phasellus non </tspan><tspan
           x="32.151897"
           y="146.13393"
           id="tspan11">maximus nibh. Curabitur a varius tortor, ac iaculis risus.</tspan></text><g
         id="hero_button"
         inkscape:label="hero_button"
         transform="translate(-14.81667,-3.1750001)"><rect
           style="fill:#121212;stroke-width:6.765;stroke-linecap:round;stroke-linejoin:round"
           id="rect12"
           width="52.606693"
           height="18.332636"
           x="38.259415"
           y="152.24057"
           rx="7.1736403"
           ry="7.1736403" /><text
           xml:space="preserve"
           style="font-style:normal;font-variant:normal;font-weight:normal;font-stretch:normal;font-size:5.64444px;line-height:1.6;font-family:'MV Boli';-inkscape-font-specification:'MV Boli, Normal';font-variant-ligatures:normal;font-variant-caps:normal;font-variant-numeric:normal;font-variant-east-asian:normal;word-spacing:0px;fill:#ffffff;stroke-width:6.765;stroke-linecap:round;stroke-linejoin:round;fill-opacity:1"
           x="47.634953"
           y="163.49875"
           id="text12"><tspan
             sodipodi:role="line"
             id="tspan12"
             style="stroke-width:6.765;fill:#ffffff;fill-opacity:1"
             x="47.634953"
             y="163.49875">Get Started</tspan></text></g></g><g
       id="header"
       inkscape:label="header"><rect
         style="font-variation-settings:'wdth' 75, 'wght' 300;fill:#ffffff;stroke-width:7.51402;stroke-linecap:round;stroke-linejoin:round;fill-opacity:1;filter:url(#filter75)"
         id="header_bg"
         width="338.66666"
         height="22.477257"
         x="-8.3333333e-07"
         y="1.3322676e-15"
         inkscape:label="header_bg" /><g
         id="g4"
         transform="matrix(0.15567322,0,0,0.15567322,4.1650902,4.2333333)"
         inkscape:label="Logo"><g
           data-v-423bf9ae=""
           id="7b1c6c75-340a-4a1e-a1d0-c6c0d1b06ffd"
           fill="#000000"
           transform="matrix(4.6082948,0,0,4.6082948,83.856507,15.000001)"><path
             d="M 7.7,12.88 H 8.61 L 4.81,2.38 H 3.89 l -3.8,10.5 h 0.93 l 0.89,-2.54 h 4.9 z M 2.19,9.54 4.36,3.38 6.53,9.54 Z m 11.01,3.48 c 1.59,0 2.94,-1.03 3.43,-2.45 h -0.86 c -0.46,0.98 -1.45,1.63 -2.57,1.63 -1.56,0 -2.84,-1.23 -2.84,-2.82 0,-1.59 1.28,-2.82 2.84,-2.82 1.12,0 2.11,0.65 2.57,1.63 h 0.86 C 16.14,6.77 14.79,5.74 13.2,5.74 c -2.02,0 -3.64,1.63 -3.64,3.64 0,2.01 1.62,3.64 3.64,3.64 z m 8.5,0 c 1.59,0 2.94,-1.03 3.43,-2.45 h -0.86 c -0.45,0.98 -1.45,1.63 -2.57,1.63 -1.56,0 -2.83,-1.23 -2.83,-2.82 0,-1.59 1.27,-2.82 2.83,-2.82 1.12,0 2.12,0.65 2.57,1.63 h 0.86 C 24.64,6.77 23.29,5.74 21.7,5.74 c -2.01,0 -3.64,1.63 -3.64,3.64 0,2.01 1.63,3.64 3.64,3.64 z M 33.83,9.28 c -0.07,-2 -1.65,-3.54 -3.62,-3.54 -2.02,0 -3.64,1.63 -3.64,3.64 0,2.01 1.62,3.64 3.64,3.64 1.64,0 3.02,-1.08 3.48,-2.59 h -0.86 c -0.42,1.05 -1.43,1.77 -2.62,1.77 -1.54,0 -2.8,-1.21 -2.84,-2.73 h 6.46 z M 30.21,6.56 c 1.31,0 2.43,0.91 2.73,2.15 h -5.48 c 0.3,-1.25 1.4,-2.15 2.75,-2.15 z m 7.45,6.46 c 1.19,0 2.17,-0.81 2.17,-1.94 0,-1.26 -1.03,-1.72 -1.96,-2.1 -0.86,-0.35 -1.43,-0.6 -1.43,-1.35 0,-0.75 0.56,-1.07 1.19,-1.07 0.49,0 0.94,0.19 1.19,0.61 l 0.7,-0.38 C 39.23,6.23 38.43,5.74 37.59,5.74 c -0.96,0 -1.98,0.65 -1.98,1.93 0,1.13 0.81,1.64 1.96,2.08 0.84,0.33 1.44,0.61 1.44,1.31 0,0.73 -0.63,1.15 -1.35,1.15 -0.73,0 -1.45,-0.42 -1.59,-0.97 l -0.79,0.31 c 0.28,0.82 1.3,1.47 2.38,1.47 z m 5.85,0 c 1.19,0 2.17,-0.81 2.17,-1.94 0,-1.26 -1.04,-1.72 -1.96,-2.1 -0.86,-0.35 -1.44,-0.6 -1.44,-1.35 0,-0.75 0.56,-1.07 1.19,-1.07 0.49,0 0.94,0.19 1.19,0.61 l 0.7,-0.38 C 45.08,6.23 44.27,5.74 43.44,5.74 c -0.97,0 -1.98,0.65 -1.98,1.93 0,1.13 0.8,1.64 1.96,2.08 0.84,0.33 1.43,0.61 1.43,1.31 0,0.73 -0.63,1.15 -1.34,1.15 -0.74,0 -1.46,-0.42 -1.6,-0.97 l -0.78,0.31 c 0.28,0.82 1.29,1.47 2.38,1.47 z m 8.13,-4.99 c 1.4,-0.15 2.49,-1.33 2.49,-2.78 0,-1.59 -1.28,-2.87 -2.87,-2.87 h -3.59 v 10.5 h 0.84 V 8.07 h 2.27 l 3.03,4.81 h 0.96 z M 48.51,7.26 V 3.22 h 2.69 c 1.18,0 2.09,0.86 2.09,2.03 0,1.16 -0.91,2.01 -2.09,2.01 z m 14.63,2.02 c -0.07,-2 -1.64,-3.54 -3.62,-3.54 -2.01,0 -3.64,1.63 -3.64,3.64 0,2.01 1.63,3.64 3.64,3.64 1.64,0 3.03,-1.08 3.48,-2.59 h -0.86 c -0.42,1.05 -1.43,1.77 -2.62,1.77 -1.54,0 -2.8,-1.21 -2.84,-2.73 h 6.46 z M 59.52,6.56 c 1.31,0 2.43,0.91 2.73,2.15 h -5.48 c 0.3,-1.25 1.4,-2.15 2.75,-2.15 z m 13.3,5.65 c -0.44,0 -0.76,-0.29 -0.76,-0.96 V 5.88 H 71.24 V 7.09 C 70.58,6.27 69.56,5.74 68.42,5.74 c -2.01,0 -3.64,1.63 -3.64,3.64 0,2.01 1.63,3.64 3.64,3.64 1.16,0 2.19,-0.54 2.84,-1.4 0.12,0.84 0.66,1.4 1.51,1.4 0.19,0 0.38,-0.05 0.52,-0.14 v -0.67 z m -4.4,-0.01 c -1.57,0 -2.83,-1.24 -2.83,-2.82 0,-1.57 1.26,-2.82 2.83,-2.82 1.56,0 2.82,1.25 2.82,2.82 0,1.58 -1.26,2.82 -2.82,2.82 z m 6.43,0.68 h 0.82 V 0 H 74.85 Z M 85.12,5.74 c -0.87,0 -1.66,0.47 -2.1,1.17 C 82.56,6.2 81.8,5.74 80.99,5.74 c -0.7,0 -1.35,0.35 -1.77,0.91 V 5.88 H 78.4 v 7 h 0.82 V 8.33 c 0,-1.01 0.74,-1.77 1.68,-1.77 0.95,0 1.7,0.76 1.7,1.77 v 4.55 h 0.82 V 8.33 c 0,-1.01 0.75,-1.77 1.68,-1.77 0.95,0 1.7,0.76 1.7,1.77 v 4.55 h 0.8 V 8.33 c 0,-1.45 -1.1,-2.59 -2.48,-2.59 z"
             id="path1" /></g><g
           data-v-423bf9ae=""
           id="8f15e033-a866-4b1b-9dae-d07ffe1e6f6c"
           transform="matrix(2.8125,0,0,2.8125,-12.426001,0)"
           stroke="none"
           fill="#000000"><path
             d="M 27.377,11.377 16,0 4.623,11.377 16,22.753 Z M 16,6.026 l 5.35,5.35 -5.35,5.351 -5.35,-5.35 z m 11.426,8.943 -5.664,5.664 V 32 h 5.664 z M 10.238,20.633 4.574,14.969 V 32 h 5.664 z"
             id="path2" /></g></g><text
         xml:space="preserve"
         style="font-style:normal;font-variant:normal;font-weight:normal;font-stretch:normal;font-size:8.75337px;line-height:1.6;font-family:'MV Boli';-inkscape-font-specification:'MV Boli, @wght=300,wdth=75.0';font-variant-ligatures:normal;font-variant-caps:normal;font-variant-numeric:normal;font-variant-east-asian:normal;font-variation-settings:'wdth' 75, 'wght' 300;word-spacing:0px;fill:#000000;stroke-width:20.2055;stroke-linecap:round;stroke-linejoin:round;fill-opacity:1"
         x="117.20721"
         y="14.360863"
         id="text4"><tspan
           id="tspan4"
           style="font-style:normal;font-variant:normal;font-weight:normal;font-stretch:normal;font-size:8.75337px;font-family:'MV Boli';-inkscape-font-specification:'MV Boli, @wght=300,wdth=75.0';font-variant-ligatures:normal;font-variant-caps:normal;font-variant-numeric:normal;font-variant-east-asian:normal;font-variation-settings:'wdth' 75, 'wght' 300;fill:#000000;stroke-width:20.2055;fill-opacity:1"
           x="117.20721"
           y="14.360863"
           sodipodi:role="line">Rooms</tspan></text></g></g><g
     inkscape:groupmode="layer"
     id="layer5"
     inkscape:label="Channels"><rect
       style="fill:#adadad;fill-opacity:1;stroke-width:6.765;stroke-linecap:round;stroke-linejoin:round"
       id="channels_bg"
       width="338.66666"
       height="190.5"
       x="348.66663"
       y="0"
       inkscape:label="channels_bg" /><g
       id="g78"
       inkscape:label="header"
       transform="translate(348.66665)"><rect
         style="font-variation-settings:'wdth' 75, 'wght' 300;fill:#ffffff;fill-opacity:1;stroke-width:7.51402;stroke-linecap:round;stroke-linejoin:round;filter:url(#filter75)"
         id="rect75"
         width="338.66666"
         height="22.477257"
         x="-8.3333333e-07"
         y="1.3322676e-15"
         inkscape:label="header_bg" /><g
         id="g77"
         transform="matrix(0.15567322,0,0,0.15567322,4.1650902,4.2333333)"
         inkscape:label="Logo"><g
           data-v-423bf9ae=""
           id="g75"
           fill="#000000"
           transform="matrix(4.6082948,0,0,4.6082948,83.856507,15.000001)"><path
             d="M 7.7,12.88 H 8.61 L 4.81,2.38 H 3.89 l -3.8,10.5 h 0.93 l 0.89,-2.54 h 4.9 z M 2.19,9.54 4.36,3.38 6.53,9.54 Z m 11.01,3.48 c 1.59,0 2.94,-1.03 3.43,-2.45 h -0.86 c -0.46,0.98 -1.45,1.63 -2.57,1.63 -1.56,0 -2.84,-1.23 -2.84,-2.82 0,-1.59 1.28,-2.82 2.84,-2.82 1.12,0 2.11,0.65 2.57,1.63 h 0.86 C 16.14,6.77 14.79,5.74 13.2,5.74 c -2.02,0 -3.64,1.63 -3.64,3.64 0,2.01 1.62,3.64 3.64,3.64 z m 8.5,0 c 1.59,0 2.94,-1.03 3.43,-2.45 h -0.86 c -0.45,0.98 -1.45,1.63 -2.57,1.63 -1.56,0 -2.83,-1.23 -2.83,-2.82 0,-1.59 1.27,-2.82 2.83,-2.82 1.12,0 2.12,0.65 2.57,1.63 h 0.86 C 24.64,6.77 23.29,5.74 21.7,5.74 c -2.01,0 -3.64,1.63 -3.64,3.64 0,2.01 1.63,3.64 3.64,3.64 z M 33.83,9.28 c -0.07,-2 -1.65,-3.54 -3.62,-3.54 -2.02,0 -3.64,1.63 -3.64,3.64 0,2.01 1.62,3.64 3.64,3.64 1.64,0 3.02,-1.08 3.48,-2.59 h -0.86 c -0.42,1.05 -1.43,1.77 -2.62,1.77 -1.54,0 -2.8,-1.21 -2.84,-2.73 h 6.46 z M 30.21,6.56 c 1.31,0 2.43,0.91 2.73,2.15 h -5.48 c 0.3,-1.25 1.4,-2.15 2.75,-2.15 z m 7.45,6.46 c 1.19,0 2.17,-0.81 2.17,-1.94 0,-1.26 -1.03,-1.72 -1.96,-2.1 -0.86,-0.35 -1.43,-0.6 -1.43,-1.35 0,-0.75 0.56,-1.07 1.19,-1.07 0.49,0 0.94,0.19 1.19,0.61 l 0.7,-0.38 C 39.23,6.23 38.43,5.74 37.59,5.74 c -0.96,0 -1.98,0.65 -1.98,1.93 0,1.13 0.81,1.64 1.96,2.08 0.84,0.33 1.44,0.61 1.44,1.31 0,0.73 -0.63,1.15 -1.35,1.15 -0.73,0 -1.45,-0.42 -1.59,-0.97 l -0.79,0.31 c 0.28,0.82 1.3,1.47 2.38,1.47 z m 5.85,0 c 1.19,0 2.17,-0.81 2.17,-1.94 0,-1.26 -1.04,-1.72 -1.96,-2.1 -0.86,-0.35 -1.44,-0.6 -1.44,-1.35 0,-0.75 0.56,-1.07 1.19,-1.07 0.49,0 0.94,0.19 1.19,0.61 l 0.7,-0.38 C 45.08,6.23 44.27,5.74 43.44,5.74 c -0.97,0 -1.98,0.65 -1.98,1.93 0,1.13 0.8,1.64 1.96,2.08 0.84,0.33 1.43,0.61 1.43,1.31 0,0.73 -0.63,1.15 -1.34,1.15 -0.74,0 -1.46,-0.42 -1.6,-0.97 l -0.78,0.31 c 0.28,0.82 1.29,1.47 2.38,1.47 z m 8.13,-4.99 c 1.4,-0.15 2.49,-1.33 2.49,-2.78 0,-1.59 -1.28,-2.87 -2.87,-2.87 h -3.59 v 10.5 h 0.84 V 8.07 h 2.27 l 3.03,4.81 h 0.96 z M 48.51,7.26 V 3.22 h 2.69 c 1.18,0 2.09,0.86 2.09,2.03 0,1.16 -0.91,2.01 -2.09,2.01 z m 14.63,2.02 c -0.07,-2 -1.64,-3.54 -3.62,-3.54 -2.01,0 -3.64,1.63 -3.64,3.64 0,2.01 1.63,3.64 3.64,3.64 1.64,0 3.03,-1.08 3.48,-2.59 h -0.86 c -0.42,1.05 -1.43,1.77 -2.62,1.77 -1.54,0 -2.8,-1.21 -2.84,-2.73 h 6.46 z M 59.52,6.56 c 1.31,0 2.43,0.91 2.73,2.15 h -5.48 c 0.3,-1.25 1.4,-2.15 2.75,-2.15 z m 13.3,5.65 c -0.44,0 -0.76,-0.29 -0.76,-0.96 V 5.88 H 71.24 V 7.09 C 70.58,6.27 69.56,5.74 68.42,5.74 c -2.01,0 -3.64,1.63 -3.64,3.64 0,2.01 1.63,3.64 3.64,3.64 1.16,0 2.19,-0.54 2.84,-1.4 0.12,0.84 0.66,1.4 1.51,1.4 0.19,0 0.38,-0.05 0.52,-0.14 v -0.67 z m -4.4,-0.01 c -1.57,0 -2.83,-1.24 -2.83,-2.82 0,-1.57 1.26,-2.82 2.83,-2.82 1.56,0 2.82,1.25 2.82,2.82 0,1.58 -1.26,2.82 -2.82,2.82 z m 6.43,0.68 h 0.82 V 0 H 74.85 Z M 85.12,5.74 c -0.87,0 -1.66,0.47 -2.1,1.17 C 82.56,6.2 81.8,5.74 80.99,5.74 c -0.7,0 -1.35,0.35 -1.77,0.91 V 5.88 H 78.4 v 7 h 0.82 V 8.33 c 0,-1.01 0.74,-1.77 1.68,-1.77 0.95,0 1.7,0.76 1.7,1.77 v 4.55 h 0.82 V 8.33 c 0,-1.01 0.75,-1.77 1.68,-1.77 0.95,0 1.7,0.76 1.7,1.77 v 4.55 h 0.8 V 8.33 c 0,-1.45 -1.1,-2.59 -2.48,-2.59 z"
             id="path75" /></g><g
           data-v-423bf9ae=""
           id="g76"
           transform="matrix(2.8125,0,0,2.8125,-12.426001,0)"
           stroke="none"
           fill="#000000"><path
             d="M 27.377,11.377 16,0 4.623,11.377 16,22.753 Z M 16,6.026 l 5.35,5.35 -5.35,5.351 -5.35,-5.35 z m 11.426,8.943 -5.664,5.664 V 32 h 5.664 z M 10.238,20.633 4.574,14.969 V 32 h 5.664 z"
             id="path76" /></g></g><text
         xml:space="preserve"
         style="font-style:normal;font-variant:normal;font-weight:normal;font-stretch:normal;font-size:8.75337px;line-height:1.6;font-family:'MV Boli';-inkscape-font-specification:'MV Boli, @wght=300,wdth=75.0';font-variant-ligatures:normal;font-variant-caps:normal;font-variant-numeric:normal;font-variant-east-asian:normal;font-variation-settings:'wdth' 75, 'wght' 300;word-spacing:0px;fill:#000000;fill-opacity:1;stroke-width:20.2055;stroke-linecap:round;stroke-linejoin:round"
         x="117.20721"
         y="14.360863"
         id="text77"><tspan
           id="tspan77"
           style="font-style:normal;font-variant:normal;font-weight:normal;font-stretch:normal;font-size:8.75337px;font-family:'MV Boli';-inkscape-font-specification:'MV Boli, @wght=300,wdth=75.0';font-variant-ligatures:normal;font-variant-caps:normal;font-variant-numeric:normal;font-variant-east-asian:normal;font-variation-settings:'wdth' 75, 'wght' 300;fill:#000000;fill-opacity:1;stroke-width:20.2055"
           x="117.20721"
           y="14.360863"
           sodipodi:role="line">Rooms</tspan></text></g><g
       id="g33"><g
         id="g85"
         transform="matrix(1,0,0,0.49528303,-65.823861,47.034785)"><rect
           style="fill:#ffffff;fill-opacity:1;stroke-width:6.765;stroke-linecap:round;stroke-linejoin:round"
           id="rect82"
           width="105.80193"
           height="65.389191"
           x="428.72916"
           y="53.668484"
           ry="7.7109895"
           rx="7.7109895" /><rect
           style="fill:#545454;fill-opacity:1;stroke-width:3.30807;stroke-linecap:round;stroke-linejoin:round"
           id="rect83"
           width="10.494105"
           height="65.389191"
           x="428.72916"
           y="53.668484"
           ry="7.7109895"
           rx="4.7843933" /><rect
           style="fill:#ffffff;fill-opacity:1;stroke-width:3.30807;stroke-linecap:round;stroke-linejoin:round"
           id="rect84"
           width="6.4331665"
           height="65.389191"
           x="434.0209"
           y="53.668484" /></g><text
         xml:space="preserve"
         style="font-size:9.98725px;line-height:1.6;font-family:'MV Boli';-inkscape-font-specification:'MV Boli, Normal';word-spacing:0px;fill:#000000;fill-opacity:1;stroke-width:11.97;stroke-linecap:round;stroke-linejoin:round"
         x="375.22086"
         y="92.510597"
         id="text85"><tspan
           sodipodi:role="line"
           id="tspan85"
           style="fill:#000000;stroke-width:11.97"
           x="375.22086"
           y="92.510597">Avengers Fandom</tspan></text></g><g
       id="create_button"><rect
         style="opacity:1;fill:#010101;stroke:#ffffff;stroke-width:0.102972;stroke-linecap:round;stroke-linejoin:round;stroke-opacity:1"
         id="rect1"
         width="32.030758"
         height="29.832317"
         x="364.48727"
         y="33.265541"
         ry="10.739635" /><g
         fill="none"
         fill-rule="evenodd"
         stroke="currentColor"
         stroke-linecap="round"
         stroke-linejoin="round"
         transform="matrix(0.92199769,0,0,0.92199769,373.39941,41.478865)"
         id="g3"
         style="stroke:#ffffff;stroke-opacity:1"><path
           d="M 7,1.5 H 2.5 c -1.1045695,0 -2,0.8954305 -2,2 v 9.000368 c 0,1.10457 0.8954305,2 2,2 h 10 c 1.10457,0 2,-0.89543 2,-2 V 8"
           id="path1-8"
           style="stroke:#ffffff;stroke-opacity:1" /><path
           d="M 14.5,0.46667982 C 15.054916,1.0400852 15.04744,1.9525604 14.4832,2.5167966 L 7.5,9.5 l -3,1 1,-3 6.98743,-7.04563515 c 0.513619,-0.5178979 1.329667,-0.55351813 1.88485,-0.1045243 z"
           id="path2-0"
           style="stroke:#ffffff;stroke-opacity:1" /><path
           d="m 12.5,2.5 0.953,1"
           id="path3"
           style="stroke:#ffffff;stroke-opacity:1" /></g></g></g><g
     inkscape:label="Channel Page"
     inkscape:groupmode="layer"
     id="layer1"
     style="display:inline"><g
       id="g82"
       inkscape:label="header"
       transform="translate(-1.6124764e-5,217.63096)"><rect
         style="font-variation-settings:'wdth' 75, 'wght' 300;fill:#ffffff;fill-opacity:1;stroke-width:7.51402;stroke-linecap:round;stroke-linejoin:round;filter:url(#filter75)"
         id="rect78"
         width="338.66666"
         height="22.477257"
         x="-8.3333333e-07"
         y="1.3322676e-15"
         inkscape:label="header_bg" /><g
         id="g81"
         transform="matrix(0.15567322,0,0,0.15567322,4.1650902,4.2333333)"
         inkscape:label="Logo"
         inkscape:export-filename="im.png"
         inkscape:export-xdpi="300"
         inkscape:export-ydpi="300"><g
           data-v-423bf9ae=""
           id="g79"
           fill="#000000"
           transform="matrix(4.6082948,0,0,4.6082948,83.856507,15.000001)"><path
             d="M 7.7,12.88 H 8.61 L 4.81,2.38 H 3.89 l -3.8,10.5 h 0.93 l 0.89,-2.54 h 4.9 z M 2.19,9.54 4.36,3.38 6.53,9.54 Z m 11.01,3.48 c 1.59,0 2.94,-1.03 3.43,-2.45 h -0.86 c -0.46,0.98 -1.45,1.63 -2.57,1.63 -1.56,0 -2.84,-1.23 -2.84,-2.82 0,-1.59 1.28,-2.82 2.84,-2.82 1.12,0 2.11,0.65 2.57,1.63 h 0.86 C 16.14,6.77 14.79,5.74 13.2,5.74 c -2.02,0 -3.64,1.63 -3.64,3.64 0,2.01 1.62,3.64 3.64,3.64 z m 8.5,0 c 1.59,0 2.94,-1.03 3.43,-2.45 h -0.86 c -0.45,0.98 -1.45,1.63 -2.57,1.63 -1.56,0 -2.83,-1.23 -2.83,-2.82 0,-1.59 1.27,-2.82 2.83,-2.82 1.12,0 2.12,0.65 2.57,1.63 h 0.86 C 24.64,6.77 23.29,5.74 21.7,5.74 c -2.01,0 -3.64,1.63 -3.64,3.64 0,2.01 1.63,3.64 3.64,3.64 z M 33.83,9.28 c -0.07,-2 -1.65,-3.54 -3.62,-3.54 -2.02,0 -3.64,1.63 -3.64,3.64 0,2.01 1.62,3.64 3.64,3.64 1.64,0 3.02,-1.08 3.48,-2.59 h -0.86 c -0.42,1.05 -1.43,1.77 -2.62,1.77 -1.54,0 -2.8,-1.21 -2.84,-2.73 h 6.46 z M 30.21,6.56 c 1.31,0 2.43,0.91 2.73,2.15 h -5.48 c 0.3,-1.25 1.4,-2.15 2.75,-2.15 z m 7.45,6.46 c 1.19,0 2.17,-0.81 2.17,-1.94 0,-1.26 -1.03,-1.72 -1.96,-2.1 -0.86,-0.35 -1.43,-0.6 -1.43,-1.35 0,-0.75 0.56,-1.07 1.19,-1.07 0.49,0 0.94,0.19 1.19,0.61 l 0.7,-0.38 C 39.23,6.23 38.43,5.74 37.59,5.74 c -0.96,0 -1.98,0.65 -1.98,1.93 0,1.13 0.81,1.64 1.96,2.08 0.84,0.33 1.44,0.61 1.44,1.31 0,0.73 -0.63,1.15 -1.35,1.15 -0.73,0 -1.45,-0.42 -1.59,-0.97 l -0.79,0.31 c 0.28,0.82 1.3,1.47 2.38,1.47 z m 5.85,0 c 1.19,0 2.17,-0.81 2.17,-1.94 0,-1.26 -1.04,-1.72 -1.96,-2.1 -0.86,-0.35 -1.44,-0.6 -1.44,-1.35 0,-0.75 0.56,-1.07 1.19,-1.07 0.49,0 0.94,0.19 1.19,0.61 l 0.7,-0.38 C 45.08,6.23 44.27,5.74 43.44,5.74 c -0.97,0 -1.98,0.65 -1.98,1.93 0,1.13 0.8,1.64 1.96,2.08 0.84,0.33 1.43,0.61 1.43,1.31 0,0.73 -0.63,1.15 -1.34,1.15 -0.74,0 -1.46,-0.42 -1.6,-0.97 l -0.78,0.31 c 0.28,0.82 1.29,1.47 2.38,1.47 z m 8.13,-4.99 c 1.4,-0.15 2.49,-1.33 2.49,-2.78 0,-1.59 -1.28,-2.87 -2.87,-2.87 h -3.59 v 10.5 h 0.84 V 8.07 h 2.27 l 3.03,4.81 h 0.96 z M 48.51,7.26 V 3.22 h 2.69 c 1.18,0 2.09,0.86 2.09,2.03 0,1.16 -0.91,2.01 -2.09,2.01 z m 14.63,2.02 c -0.07,-2 -1.64,-3.54 -3.62,-3.54 -2.01,0 -3.64,1.63 -3.64,3.64 0,2.01 1.63,3.64 3.64,3.64 1.64,0 3.03,-1.08 3.48,-2.59 h -0.86 c -0.42,1.05 -1.43,1.77 -2.62,1.77 -1.54,0 -2.8,-1.21 -2.84,-2.73 h 6.46 z M 59.52,6.56 c 1.31,0 2.43,0.91 2.73,2.15 h -5.48 c 0.3,-1.25 1.4,-2.15 2.75,-2.15 z m 13.3,5.65 c -0.44,0 -0.76,-0.29 -0.76,-0.96 V 5.88 H 71.24 V 7.09 C 70.58,6.27 69.56,5.74 68.42,5.74 c -2.01,0 -3.64,1.63 -3.64,3.64 0,2.01 1.63,3.64 3.64,3.64 1.16,0 2.19,-0.54 2.84,-1.4 0.12,0.84 0.66,1.4 1.51,1.4 0.19,0 0.38,-0.05 0.52,-0.14 v -0.67 z m -4.4,-0.01 c -1.57,0 -2.83,-1.24 -2.83,-2.82 0,-1.57 1.26,-2.82 2.83,-2.82 1.56,0 2.82,1.25 2.82,2.82 0,1.58 -1.26,2.82 -2.82,2.82 z m 6.43,0.68 h 0.82 V 0 H 74.85 Z M 85.12,5.74 c -0.87,0 -1.66,0.47 -2.1,1.17 C 82.56,6.2 81.8,5.74 80.99,5.74 c -0.7,0 -1.35,0.35 -1.77,0.91 V 5.88 H 78.4 v 7 h 0.82 V 8.33 c 0,-1.01 0.74,-1.77 1.68,-1.77 0.95,0 1.7,0.76 1.7,1.77 v 4.55 h 0.82 V 8.33 c 0,-1.01 0.75,-1.77 1.68,-1.77 0.95,0 1.7,0.76 1.7,1.77 v 4.55 h 0.8 V 8.33 c 0,-1.45 -1.1,-2.59 -2.48,-2.59 z"
             id="path78" /></g><g
           data-v-423bf9ae=""
           id="g80"
           transform="matrix(2.8125,0,0,2.8125,-12.426001,0)"
           stroke="none"
           fill="#000000"><path
             d="M 27.377,11.377 16,0 4.623,11.377 16,22.753 Z M 16,6.026 l 5.35,5.35 -5.35,5.351 -5.35,-5.35 z m 11.426,8.943 -5.664,5.664 V 32 h 5.664 z M 10.238,20.633 4.574,14.969 V 32 h 5.664 z"
             id="path79" /></g></g><text
         xml:space="preserve"
         style="font-style:normal;font-variant:normal;font-weight:normal;font-stretch:normal;font-size:8.75337px;line-height:1.6;font-family:'MV Boli';-inkscape-font-specification:'MV Boli, @wght=300,wdth=75.0';font-variant-ligatures:normal;font-variant-caps:normal;font-variant-numeric:normal;font-variant-east-asian:normal;font-variation-settings:'wdth' 75, 'wght' 300;word-spacing:0px;fill:#000000;fill-opacity:1;stroke-width:20.2055;stroke-linecap:round;stroke-linejoin:round"
         x="117.20721"
         y="14.360863"
         id="text81"><tspan
           id="tspan81"
           style="font-style:normal;font-variant:normal;font-weight:normal;font-stretch:normal;font-size:8.75337px;font-family:'MV Boli';-inkscape-font-specification:'MV Boli, @wght=300,wdth=75.0';font-variant-ligatures:normal;font-variant-caps:normal;font-variant-numeric:normal;font-variant-east-asian:normal;font-variation-settings:'wdth' 75, 'wght' 300;fill:#000000;fill-opacity:1;stroke-width:20.2055"
           x="117.20721"
           y="14.360863"
           sodipodi:role="line">Rooms</tspan></text></g><g
       id="user_post"><rect
         style="fill:#000000;fill-opacity:0;stroke:#000000;stroke-width:0.264583;stroke-linecap:round;stroke-linejoin:round;stroke-dasharray:none;stroke-opacity:1"
         id="rect85"
         width="285.61499"
         height="57.369759"
         x="25.032173"
         y="249.0918"
         ry="7.4025483"
         rx="7.4025483" /><rect
         style="fill:#757575;fill-opacity:1;stroke-width:6.765;stroke-linecap:round;stroke-linejoin:round"
         id="rect86"
         width="285.61499"
         height="14.8051"
         x="25.032173"
         y="249.0918"
         ry="5.8603525"
         rx="7.4025483" /><rect
         style="fill:#757575;fill-opacity:1;stroke-width:6.765;stroke-linecap:round;stroke-linejoin:round"
         id="rect87"
         width="285.61499"
         height="7.7109904"
         x="25.032173"
         y="258.91656" /><text
         xml:space="preserve"
         style="font-size:5.64444px;line-height:1.6;font-family:'MV Boli';-inkscape-font-specification:'MV Boli, Normal';word-spacing:0px;fill:#000000;fill-opacity:0;stroke:#000000;stroke-width:0.264583;stroke-linecap:round;stroke-linejoin:round;stroke-dasharray:none;stroke-opacity:1"
         x="31.551765"
         y="259.9325"
         id="text87"><tspan
           sodipodi:role="line"
           id="tspan87"
           style="stroke-width:0.264583"
           x="31.551765"
           y="259.9325">Some_Random_Noob</tspan></text><text
         xml:space="preserve"
         style="font-size:5.64444px;line-height:1.6;font-family:'MV Boli';-inkscape-font-specification:'MV Boli, Normal';word-spacing:0px;fill:#000000;fill-opacity:0;stroke:#000000;stroke-width:0.264583;stroke-linecap:round;stroke-linejoin:round;stroke-dasharray:none;stroke-opacity:1"
         x="236.02362"
         y="260.0202"
         id="text88"><tspan
           sodipodi:role="line"
           id="tspan88"
           style="stroke-width:0.264583"
           x="236.02362"
           y="260.0202">22:11 on 25 Aug, 2024</tspan></text><text
         xml:space="preserve"
         style="font-style:normal;font-variant:normal;font-weight:normal;font-stretch:normal;font-size:6.35px;line-height:1.6;font-family:'MV Boli';-inkscape-font-specification:'MV Boli, Normal';font-variant-ligatures:normal;font-variant-caps:normal;font-variant-numeric:normal;font-variant-east-asian:normal;word-spacing:0px;white-space:pre;inline-size:270.164;fill:#000000;fill-opacity:1;stroke:none;stroke-width:0.264583;stroke-linecap:round;stroke-linejoin:round;stroke-dasharray:none;stroke-opacity:0.0122807"
         x="732.23553"
         y="56.136002"
         id="text89"
         transform="translate(-698.39164,221.33513)"><tspan
           x="732.23553"
           y="56.136002"
           id="tspan13">Sint occaecat pariatur enim nisi qui qui. Consectetur veniam dolor reprehenderit esse </tspan><tspan
           x="732.23553"
           y="66.296002"
           id="tspan14">reprehenderit adipisicing occaecat id occaecat do voluptate fugiat culpa amet. Irure in </tspan><tspan
           x="732.23553"
           y="76.456002"
           id="tspan15">eiusmod nisi nostrud in aute esse. Labore deserunt ad non enim nostrud ullamco.</tspan></text></g></g><g
     inkscape:groupmode="layer"
     id="layer3"
     inkscape:label="New Channel Form"><rect
       style="fill:#adadad;fill-opacity:1;stroke-width:6.765;stroke-linecap:round;stroke-linejoin:round"
       id="rect5"
       width="338.66666"
       height="190.5"
       x="350.65234"
       y="217.63097"
       inkscape:label="channels_bg" /><g
       id="g9"
       inkscape:label="header"
       transform="translate(350.65237,217.63097)"><rect
         style="font-variation-settings:'wdth' 75, 'wght' 300;fill:#ffffff;fill-opacity:1;stroke-width:7.51402;stroke-linecap:round;stroke-linejoin:round;filter:url(#filter75)"
         id="rect6"
         width="338.66666"
         height="22.477257"
         x="-8.3333333e-07"
         y="1.3322676e-15"
         inkscape:label="header_bg" /><g
         id="g8"
         transform="matrix(0.15567322,0,0,0.15567322,4.1650902,4.2333333)"
         inkscape:label="Logo"><g
           data-v-423bf9ae=""
           id="g6"
           fill="#000000"
           transform="matrix(4.6082948,0,0,4.6082948,83.856507,15.000001)"><path
             d="M 7.7,12.88 H 8.61 L 4.81,2.38 H 3.89 l -3.8,10.5 h 0.93 l 0.89,-2.54 h 4.9 z M 2.19,9.54 4.36,3.38 6.53,9.54 Z m 11.01,3.48 c 1.59,0 2.94,-1.03 3.43,-2.45 h -0.86 c -0.46,0.98 -1.45,1.63 -2.57,1.63 -1.56,0 -2.84,-1.23 -2.84,-2.82 0,-1.59 1.28,-2.82 2.84,-2.82 1.12,0 2.11,0.65 2.57,1.63 h 0.86 C 16.14,6.77 14.79,5.74 13.2,5.74 c -2.02,0 -3.64,1.63 -3.64,3.64 0,2.01 1.62,3.64 3.64,3.64 z m 8.5,0 c 1.59,0 2.94,-1.03 3.43,-2.45 h -0.86 c -0.45,0.98 -1.45,1.63 -2.57,1.63 -1.56,0 -2.83,-1.23 -2.83,-2.82 0,-1.59 1.27,-2.82 2.83,-2.82 1.12,0 2.12,0.65 2.57,1.63 h 0.86 C 24.64,6.77 23.29,5.74 21.7,5.74 c -2.01,0 -3.64,1.63 -3.64,3.64 0,2.01 1.63,3.64 3.64,3.64 z M 33.83,9.28 c -0.07,-2 -1.65,-3.54 -3.62,-3.54 -2.02,0 -3.64,1.63 -3.64,3.64 0,2.01 1.62,3.64 3.64,3.64 1.64,0 3.02,-1.08 3.48,-2.59 h -0.86 c -0.42,1.05 -1.43,1.77 -2.62,1.77 -1.54,0 -2.8,-1.21 -2.84,-2.73 h 6.46 z M 30.21,6.56 c 1.31,0 2.43,0.91 2.73,2.15 h -5.48 c 0.3,-1.25 1.4,-2.15 2.75,-2.15 z m 7.45,6.46 c 1.19,0 2.17,-0.81 2.17,-1.94 0,-1.26 -1.03,-1.72 -1.96,-2.1 -0.86,-0.35 -1.43,-0.6 -1.43,-1.35 0,-0.75 0.56,-1.07 1.19,-1.07 0.49,0 0.94,0.19 1.19,0.61 l 0.7,-0.38 C 39.23,6.23 38.43,5.74 37.59,5.74 c -0.96,0 -1.98,0.65 -1.98,1.93 0,1.13 0.81,1.64 1.96,2.08 0.84,0.33 1.44,0.61 1.44,1.31 0,0.73 -0.63,1.15 -1.35,1.15 -0.73,0 -1.45,-0.42 -1.59,-0.97 l -0.79,0.31 c 0.28,0.82 1.3,1.47 2.38,1.47 z m 5.85,0 c 1.19,0 2.17,-0.81 2.17,-1.94 0,-1.26 -1.04,-1.72 -1.96,-2.1 -0.86,-0.35 -1.44,-0.6 -1.44,-1.35 0,-0.75 0.56,-1.07 1.19,-1.07 0.49,0 0.94,0.19 1.19,0.61 l 0.7,-0.38 C 45.08,6.23 44.27,5.74 43.44,5.74 c -0.97,0 -1.98,0.65 -1.98,1.93 0,1.13 0.8,1.64 1.96,2.08 0.84,0.33 1.43,0.61 1.43,1.31 0,0.73 -0.63,1.15 -1.34,1.15 -0.74,0 -1.46,-0.42 -1.6,-0.97 l -0.78,0.31 c 0.28,0.82 1.29,1.47 2.38,1.47 z m 8.13,-4.99 c 1.4,-0.15 2.49,-1.33 2.49,-2.78 0,-1.59 -1.28,-2.87 -2.87,-2.87 h -3.59 v 10.5 h 0.84 V 8.07 h 2.27 l 3.03,4.81 h 0.96 z M 48.51,7.26 V 3.22 h 2.69 c 1.18,0 2.09,0.86 2.09,2.03 0,1.16 -0.91,2.01 -2.09,2.01 z m 14.63,2.02 c -0.07,-2 -1.64,-3.54 -3.62,-3.54 -2.01,0 -3.64,1.63 -3.64,3.64 0,2.01 1.63,3.64 3.64,3.64 1.64,0 3.03,-1.08 3.48,-2.59 h -0.86 c -0.42,1.05 -1.43,1.77 -2.62,1.77 -1.54,0 -2.8,-1.21 -2.84,-2.73 h 6.46 z M 59.52,6.56 c 1.31,0 2.43,0.91 2.73,2.15 h -5.48 c 0.3,-1.25 1.4,-2.15 2.75,-2.15 z m 13.3,5.65 c -0.44,0 -0.76,-0.29 -0.76,-0.96 V 5.88 H 71.24 V 7.09 C 70.58,6.27 69.56,5.74 68.42,5.74 c -2.01,0 -3.64,1.63 -3.64,3.64 0,2.01 1.63,3.64 3.64,3.64 1.16,0 2.19,-0.54 2.84,-1.4 0.12,0.84 0.66,1.4 1.51,1.4 0.19,0 0.38,-0.05 0.52,-0.14 v -0.67 z m -4.4,-0.01 c -1.57,0 -2.83,-1.24 -2.83,-2.82 0,-1.57 1.26,-2.82 2.83,-2.82 1.56,0 2.82,1.25 2.82,2.82 0,1.58 -1.26,2.82 -2.82,2.82 z m 6.43,0.68 h 0.82 V 0 H 74.85 Z M 85.12,5.74 c -0.87,0 -1.66,0.47 -2.1,1.17 C 82.56,6.2 81.8,5.74 80.99,5.74 c -0.7,0 -1.35,0.35 -1.77,0.91 V 5.88 H 78.4 v 7 h 0.82 V 8.33 c 0,-1.01 0.74,-1.77 1.68,-1.77 0.95,0 1.7,0.76 1.7,1.77 v 4.55 h 0.82 V 8.33 c 0,-1.01 0.75,-1.77 1.68,-1.77 0.95,0 1.7,0.76 1.7,1.77 v 4.55 h 0.8 V 8.33 c 0,-1.45 -1.1,-2.59 -2.48,-2.59 z"
             id="path6" /></g><g
           data-v-423bf9ae=""
           id="g7"
           transform="matrix(2.8125,0,0,2.8125,-12.426001,0)"
           stroke="none"
           fill="#000000"><path
             d="M 27.377,11.377 16,0 4.623,11.377 16,22.753 Z M 16,6.026 l 5.35,5.35 -5.35,5.351 -5.35,-5.35 z m 11.426,8.943 -5.664,5.664 V 32 h 5.664 z M 10.238,20.633 4.574,14.969 V 32 h 5.664 z"
             id="path7" /></g></g><text
         xml:space="preserve"
         style="font-style:normal;font-variant:normal;font-weight:normal;font-stretch:normal;font-size:8.75337px;line-height:1.6;font-family:'MV Boli';-inkscape-font-specification:'MV Boli, @wght=300,wdth=75.0';font-variant-ligatures:normal;font-variant-caps:normal;font-variant-numeric:normal;font-variant-east-asian:normal;font-variation-settings:'wdth' 75, 'wght' 300;word-spacing:0px;fill:#000000;fill-opacity:1;stroke-width:20.2055;stroke-linecap:round;stroke-linejoin:round"
         x="117.20721"
         y="14.360863"
         id="text8"><tspan
           id="tspan8"
           style="font-style:normal;font-variant:normal;font-weight:normal;font-stretch:normal;font-size:8.75337px;font-family:'MV Boli';-inkscape-font-specification:'MV Boli, @wght=300,wdth=75.0';font-variant-ligatures:normal;font-variant-caps:normal;font-variant-numeric:normal;font-variant-east-asian:normal;font-variation-settings:'wdth' 75, 'wght' 300;fill:#000000;fill-opacity:1;stroke-width:20.2055"
           x="117.20721"
           y="14.360863"
           sodipodi:role="line">Rooms</tspan></text></g><g
       id="chatroom_button"><g
         id="g17"
         transform="matrix(1,0,0,0.49528304,-63.838148,264.66575)"><rect
           style="fill:#ffffff;fill-opacity:1;stroke-width:6.765;stroke-linecap:round;stroke-linejoin:round"
           id="rect13"
           width="105.80193"
           height="65.389191"
           x="428.72916"
           y="53.668484"
           ry="7.7109895"
           rx="7.7109895" /><rect
           style="fill:#545454;fill-opacity:1;stroke-width:3.30807;stroke-linecap:round;stroke-linejoin:round"
           id="rect16"
           width="10.494105"
           height="65.389191"
           x="428.72916"
           y="53.668484"
           ry="7.7109895"
           rx="4.7843933" /><rect
           style="fill:#ffffff;fill-opacity:1;stroke-width:3.30807;stroke-linecap:round;stroke-linejoin:round"
           id="rect17"
           width="6.4331665"
           height="65.389191"
           x="434.0209"
           y="53.668484" /></g><text
         xml:space="preserve"
         style="font-size:9.98725px;line-height:1.6;font-family:'MV Boli';-inkscape-font-specification:'MV Boli, Normal';word-spacing:0px;fill:#000000;fill-opacity:1;stroke-width:11.97;stroke-linecap:round;stroke-linejoin:round"
         x="377.20657"
         y="310.14157"
         id="text24"><tspan
           sodipodi:role="line"
           id="tspan24"
           style="fill:#000000;stroke-width:11.97"
           x="377.20657"
           y="310.14157">Avengers Fandom</tspan></text></g><g
       id="create_button2"><rect
         style="opacity:1;fill:#010101;stroke:#ffffff;stroke-width:0.102972;stroke-linecap:round;stroke-linejoin:round;stroke-opacity:1"
         id="rect30"
         width="32.030758"
         height="29.832317"
         x="366.47299"
         y="250.8965"
         ry="10.739635" /><g
         fill="none"
         fill-rule="evenodd"
         stroke="currentColor"
         stroke-linecap="round"
         stroke-linejoin="round"
         transform="matrix(0.9219977,0,0,0.9219977,375.38512,259.10983)"
         id="g32"
         style="stroke:#ffffff;stroke-opacity:1"><path
           d="M 7,1.5 H 2.5 c -1.1045695,0 -2,0.8954305 -2,2 v 9.000368 c 0,1.10457 0.8954305,2 2,2 h 10 c 1.10457,0 2,-0.89543 2,-2 V 8"
           id="path30"
           style="stroke:#ffffff;stroke-opacity:1" /><path
           d="M 14.5,0.46667982 C 15.054916,1.0400852 15.04744,1.9525604 14.4832,2.5167966 L 7.5,9.5 l -3,1 1,-3 6.98743,-7.04563515 c 0.513619,-0.5178979 1.329667,-0.55351813 1.88485,-0.1045243 z"
           id="path31"
           style="stroke:#ffffff;stroke-opacity:1" /><path
           d="m 12.5,2.5 0.953,1"
           id="path32"
           style="stroke:#ffffff;stroke-opacity:1" /></g></g><rect
       style="opacity:0.98909657;fill:#757575;fill-opacity:1;stroke:#ffffff;stroke-width:0.264583;stroke-linecap:round;stroke-linejoin:round;stroke-opacity:1;filter:url(#filter36)"
       id="rect34"
       width="249.08594"
       height="152.41609"
       x="395.44269"
       y="248.44147" /><text
       xml:space="preserve"
       style="font-style:normal;font-variant:normal;font-weight:normal;font-stretch:normal;font-size:11.2889px;line-height:1.6;font-family:'MV Boli';-inkscape-font-specification:'MV Boli, Normal';font-variant-ligatures:normal;font-variant-caps:normal;font-variant-numeric:normal;font-variant-east-asian:normal;word-spacing:0px;opacity:0.448598;fill:#ffffff;fill-opacity:1;stroke:#ffffff;stroke-width:0.264583;stroke-linecap:round;stroke-linejoin:round;stroke-opacity:1"
       x="468.55176"
       y="268.08957"
       id="text34"><tspan
         sodipodi:role="line"
         id="tspan34"
         style="font-style:normal;font-variant:normal;font-weight:normal;font-stretch:normal;font-size:11.2889px;font-family:'MV Boli';-inkscape-font-specification:'MV Boli, Normal';font-variant-ligatures:normal;font-variant-caps:normal;font-variant-numeric:normal;font-variant-east-asian:normal;fill:#ffffff;stroke:#ffffff;stroke-width:0.264583;stroke-opacity:1"
         x="468.55176"
         y="268.08957">Create a New Room</tspan></text><text
       xml:space="preserve"
       style="font-style:normal;font-variant:normal;font-weight:normal;font-stretch:normal;font-size:6.35px;line-height:1.6;font-family:'MV Boli';-inkscape-font-specification:'MV Boli, Normal';font-variant-ligatures:normal;font-variant-caps:normal;font-variant-numeric:normal;font-variant-east-asian:normal;word-spacing:0px;opacity:0.448598;fill:#ffffff;fill-opacity:1;stroke:#ffffff;stroke-width:0.264583;stroke-linecap:round;stroke-linejoin:round;stroke-opacity:1"
       x="417.79193"
       y="291.24686"
       id="text35"><tspan
         sodipodi:role="line"
         id="tspan35"
         style="font-style:normal;font-variant:normal;font-weight:normal;font-stretch:normal;font-size:6.35px;font-family:'MV Boli';-inkscape-font-specification:'MV Boli, Normal';font-variant-ligatures:normal;font-variant-caps:normal;font-variant-numeric:normal;font-variant-east-asian:normal;stroke-width:0.264583;fill:#ffffff;stroke:#ffffff"
         x="417.79193"
         y="291.24686">Name:</tspan></text><text
       xml:space="preserve"
       style="font-style:normal;font-variant:normal;font-weight:normal;font-stretch:normal;font-size:6.35px;line-height:1.6;font-family:'MV Boli';-inkscape-font-specification:'MV Boli, Normal';font-variant-ligatures:normal;font-variant-caps:normal;font-variant-numeric:normal;font-variant-east-asian:normal;word-spacing:0px;opacity:0.448598;fill:#ffffff;fill-opacity:1;stroke:#ffffff;stroke-width:0.264583;stroke-linecap:round;stroke-linejoin:round;stroke-opacity:1"
       x="418.22086"
       y="315.46588"
       id="text36"><tspan
         sodipodi:role="line"
         id="tspan36"
         style="stroke-width:0.264583;stroke:#ffffff;fill:#ffffff"
         x="418.22086"
         y="315.46588">Description:</tspan></text><rect
       style="opacity:0.989097;fill:none;fill-opacity:1;stroke:#e2e2e2;stroke-width:0.639799;stroke-linecap:round;stroke-linejoin:round;stroke-opacity:1"
       id="rect36"
       width="192.78619"
       height="66.378555"
       x="418.30179"
       y="321.32248" /><path
       style="opacity:0.989097;fill:none;fill-opacity:1;stroke:#e1e1e1;stroke-width:0.264583;stroke-linecap:round;stroke-linejoin:round;stroke-opacity:1"
       d="M 417.93591,303.03775 H 610.95334"
       id="path37" /></g></svg>
